<?xml version="1.0" encoding="utf-8"?>
<!-- Generator: Adobe Illustrator 22.0.0, SVG Export Plug-In . SVG Version: 6.00 Build 0)  -->
<svg version="1.1" id="Layer_1" xmlns="http://www.w3.org/2000/svg" xmlns:xlink="http://www.w3.org/1999/xlink" x="0px" y="0px"
	 viewBox="0 0 256 246" style="enable-background:new 0 0 256 246;" xml:space="preserve">
<style type="text/css">
	.st0{fill:#FFFFFF;}
	.st1{fill:none;}
	.st2{fill:#8297B4;}
	.st3{fill:#8398B4;}
</style>
<path class="st0" d="M256,48.4v159.3c0,0.1,0,0.2,0,0.2c-0.4,6.2-4.8,17.9-18.5,17.9c-10.7,0-144.5-0.4-223.3-0.6
	c-4.9,0-9.3-2.4-12-6.5c-1.5-2.3-2.2-4.9-2.2-7.5c0-1.9,0.4-3.7,1.1-5.5c0,0,0,0,0,0l30.8-71c1.8-4.2,1.8-9.1,0-13.4L1.2,50.3
	C0.4,48.6,0,46.7,0,44.8c0-2.6,0.7-5.2,2.2-7.5c2.6-4.1,7.1-6.5,12-6.5c63.4-0.2,212.1-0.6,223.3-0.6c13.6,0,18,11.7,18.5,17.9
	C256,48.2,256,48.3,256,48.4z"/>
<g id="Layer_3">
	<path class="st1" d="M158,166l27.2,1.4c9.5,0.5,12.6-0.8,13-1.4c0.1-0.3,0.2-0.5,0.3-0.8c-1.6,0.7-3.3,1.2-5.1,1.2
		c-1.8,0.1-3.2,0.1-3.3,0.1c-0.3,0-0.5-0.3-0.5-0.6s0.3-0.5,0.6-0.5l0,0c2.4,0.1,7.5-0.3,8.3-1.6c0,0,0.1-0.1,0.1-0.1
		c0-0.2,0-0.4,0-0.6c0,0,0,0,0-0.1c-0.2,0.1-0.4,0.2-0.6,0.2c-3.8,0.8-7.7,1.1-11.5,0.9l-28.8-1.4l-0.1,2.8c0,0.1,0,0.3,0.1,0.4
		C157.7,165.9,157.8,166,158,166z"/>
	<path class="st1" d="M177.1,160.5c2.8-1.8,0-5.4,0-5.4c0,2.1-0.9,3.9-3.1,3.5c-3.2-0.6-9.9-2.3-12.6-2.9l-1-0.2
		C161.1,155.8,173.6,162.8,177.1,160.5z"/>
	<path class="st1" d="M170.2,151.3c0.9-0.4,1.8-0.8,2.5-1.1c0.7-0.4,1.5-0.7,2.2-0.9l0.4-0.1l-1.6-1.2c-0.1-0.1-0.3-0.2-0.5-0.1
		h-0.1H173l-3.2,1.4c-0.2,0.1-0.3,0.3-0.4,0.5c-0.1,0.2,0,0.4,0.1,0.6L170.2,151.3z"/>
	<path class="st1" d="M177,152.9l1.1-0.8l0.8-0.6c0.1-0.1,0.2-0.3,0.3-0.4c0-0.1,0-0.3,0-0.4c0-0.1-0.1-0.1-0.1-0.2
		c-0.1-0.2-0.3-0.3-0.6-0.3c-0.1,0-0.1,0-0.2,0c-0.1,0-0.1,0-0.2,0.1l-1.4,1l-0.5,0.4c-0.1,0.1-0.2,0.3-0.3,0.4c0,0.2,0,0.4,0.1,0.6
		C176.3,153,176.7,153.1,177,152.9z"/>
	<path class="st1" d="M184.8,157l1-0.7l0.9-0.6c0.2-0.2,0.3-0.5,0.3-0.8c0-0.1-0.1-0.2-0.1-0.2c-0.1-0.2-0.3-0.3-0.6-0.4
		c-0.1,0-0.3,0-0.4,0.1l-1.6,1.2l-0.2,0.2c-0.3,0.3-0.4,0.7-0.1,1C184.1,157.1,184.5,157.2,184.8,157C184.8,157,184.8,157,184.8,157
		z"/>
	<path class="st1" d="M188.8,159.1l1.4-1l0.5-0.3c0.1-0.1,0.2-0.3,0.3-0.4c0-0.2,0-0.4-0.1-0.6c-0.2-0.3-0.6-0.4-0.9-0.3
		c0,0,0,0-0.1,0l-1.4,1l-0.5,0.4c-0.2,0.1-0.3,0.3-0.3,0.5c0,0.2,0,0.4,0.1,0.6C188,159.2,188.4,159.3,188.8,159.1
		C188.7,159.1,188.7,159.1,188.8,159.1z"/>
	<path class="st1" d="M180.9,155l0.9-0.6l1-0.7c0.2-0.1,0.2-0.3,0.3-0.4c0-0.1,0-0.1,0-0.2c0-0.4-0.3-0.7-0.7-0.8
		c-0.1,0-0.3,0-0.4,0.1l0,0l-1.6,1.1l-0.3,0.2c-0.1,0.1-0.2,0.3-0.3,0.4c0,0.2,0,0.4,0.1,0.6C180.2,155.1,180.6,155.2,180.9,155z"/>
	<path class="st1" d="M70.4,108.5v74.2h135.2v-74.2H70.4z M160.8,124H181v17.5h-20.2V124z M127.9,124h20.3v17.5h-20.3V124z
		 M115.2,167.7H95v-17.4h20.2L115.2,167.7z M115.2,141.5H95V124h20.2L115.2,141.5z M127.9,150.3h20.3v17.4h-20.3V150.3z M200,162
		c0,1.4-0.1,3.7-0.5,4.7c0,0,0,0.1-0.1,0.1c0,0,0,0.1-0.1,0.1c-1.1,1.5-5.4,2.3-14.1,1.9l-27.2-1.4c-1.1-0.1-1.9-1.1-1.8-2.2l0.2-3
		l-0.1-0.3c0-0.2-0.1-0.4-0.1-0.6c-0.4-2.8-0.4-5.7,0-8.5c0-0.2,0.1-0.4,0.2-0.5c0,0,0,0,0-0.1c0.2-0.3,0.6-0.4,1-0.4h0
		c1.4,0.3,2.8,0.4,4.3,0.5c2.3,0.2,4.5-0.1,6.7-0.6c0.2-0.1,0.4-0.1,0.6-0.2c0.1,0,0.1,0,0.2-0.1l-0.5-0.6c-0.3-0.5-0.4-1-0.3-1.6
		c0.1-0.3,0.2-0.5,0.3-0.7l0,0c0.2-0.2,0.4-0.4,0.6-0.5l3.2-1.4c0.6-0.2,1.2-0.2,1.7,0.2l3,2.3h0.1c0.3-0.2,0.7-0.3,1.1-0.3h0.1
		c0.6,0,1.2,0.4,1.5,0.9c0.2,0.3,0.3,0.7,0.3,1.1l0.4,0.2c0.1,0.1,0.2,0.1,0.3,0.2l0.1,0.1l0.1-0.1c0.3-0.2,0.7-0.4,1.1-0.3
		c0.6,0,1.2,0.4,1.5,0.9c0.2,0.4,0.4,0.8,0.3,1.2c0.1,0,0.2,0.1,0.3,0.1c0.1,0.1,0.2,0.1,0.4,0.2h0.1l0.2-0.1
		c0.3-0.2,0.7-0.3,1.1-0.3c0.6,0,1.2,0.4,1.6,0.9c0.2,0.3,0.3,0.6,0.3,0.9l0.2,0.1l0.9,0.3c0.3-0.2,0.6-0.2,0.9-0.2
		c0.6,0,1.2,0.4,1.5,0.9c0,0,0.1,0.1,0.1,0.2c1.2,0.4,2.5,0.8,3.9,1.1c1,0.2,2,0.6,2.9,1.1c0.9,0.5,1.4,1.6,1.2,2.6
		C200,161.1,200,161.5,200,162z"/>
	<path class="st1" d="M80.8,83.8c2.4,5.6,8,9.8,14.8,11C88.8,93.6,83.2,89.3,80.8,83.8z M91,78.9c-0.1-0.4-0.1-0.7-0.1-1.1l0-16.4
		v16.4c0,0.6,0.1,1.2,0.2,1.7c0,0,0-0.1,0-0.1C91,79.3,91,79.1,91,78.9z M104.8,55.3c0,0-0.1,0-0.1-0.1c0.1,0,0.2,0.1,0.2,0.2
		C104.9,55.4,104.8,55.3,104.8,55.3z M102.6,54.3c-0.2-0.1-0.4-0.1-0.6-0.2L102.6,54.3C102.6,54.3,102.6,54.3,102.6,54.3z M105.7,56
		c-0.1-0.1-0.2-0.2-0.3-0.3c0.2,0.2,0.4,0.4,0.7,0.6C106,56.2,105.9,56.1,105.7,56z M108,59.2c0-0.1-0.1-0.2-0.1-0.4
		c-0.1-0.2-0.1-0.3-0.2-0.5c-0.1-0.1-0.1-0.3-0.2-0.4c-0.3-0.5-0.6-0.9-1-1.2c-0.1-0.1-0.2-0.2-0.4-0.3c0.1,0.1,0.2,0.2,0.4,0.4
		c0.3,0.3,0.6,0.6,0.8,1c0.1,0.1,0.1,0.2,0.2,0.2c0.1,0.2,0.2,0.3,0.3,0.5C107.8,58.7,107.9,58.9,108,59.2c0.1,0.2,0.1,0.5,0.2,0.7
		c0,0.1,0.1,0.3,0.1,0.5c0.1,0.3,0.1,0.7,0.1,1v16.5c0,0.3,0,0.7-0.1,1c0,0.2,0,0.3-0.1,0.5c-0.1,0.2-0.1,0.5-0.2,0.7
		c-0.1,0.2-0.2,0.4-0.2,0.6l-0.1,0.2c-0.1,0.1-0.2,0.3-0.2,0.4c-0.1,0.2-0.2,0.3-0.3,0.4c-0.1,0.2-0.2,0.3-0.3,0.4
		c-0.1,0.1-0.2,0.2-0.3,0.3l-0.3,0.3l-0.3,0.3l-0.2,0.2c-0.2,0.1-0.3,0.3-0.5,0.4c-0.2,0.1-0.5,0.3-0.7,0.4
		c-0.4,0.2-0.7,0.4-1.1,0.6c-0.3,0.1-0.5,0.2-0.8,0.3s-0.5,0.2-0.8,0.2c-0.6,0.1-1.1,0.2-1.7,0.2h-0.9c-0.6,0-1.2-0.1-1.7-0.2
		c-0.3-0.1-0.6-0.1-0.8-0.2c-0.3-0.1-0.5-0.2-0.8-0.3c-0.4-0.2-0.7-0.3-1.1-0.6c0.2,0.1,0.4,0.2,0.5,0.3c0.2,0.1,0.4,0.2,0.6,0.3
		c0,0,0,0,0,0c0.1,0.1,0.3,0.1,0.5,0.2c0,0,0.1,0,0.1,0c0.1,0,0.1,0,0.2,0.1c0.1,0,0.3,0.1,0.5,0.1c0.1,0,0.2,0.1,0.3,0.1
		c0,0,0,0,0.1,0c0.2,0,0.3,0.1,0.5,0.1c0.3,0.1,0.6,0.1,0.9,0.1c0.3,0,0.6,0,0.8,0c4.8,0,8.8-3.4,8.8-7.6V61.4
		C108.4,60.6,108.3,59.9,108,59.2z M99.6,53.8c-0.2,0-0.5,0-0.7,0c0.2,0,0.3,0,0.5,0h1.1C100.2,53.9,99.9,53.8,99.6,53.8z
		 M176.7,85.4H176c-0.6,0-1.2-0.1-1.7-0.2c-0.3-0.1-0.6-0.1-0.8-0.2c-0.3-0.1-0.5-0.2-0.8-0.3c-0.4-0.2-0.8-0.3-1.1-0.5
		c-0.2-0.1-0.5-0.3-0.7-0.4c-0.3-0.2-0.6-0.5-0.9-0.8c-0.5-0.4-0.9-0.9-1.2-1.5c-0.1-0.2-0.3-0.4-0.4-0.7c-0.5-0.9-0.7-1.9-0.7-2.9
		l-0.1-16.4v16.4c0,4.1,4,7.6,8.8,7.6C176.5,85.5,176.5,85.5,176.7,85.4c0,0,0.1,0,0.1,0c0.2,0,0.4,0,0.5,0c0.2,0,0.3,0,0.5-0.1
		C177.5,85.4,177.1,85.4,176.7,85.4z M180.7,54.9L180.7,54.9c-0.1-0.1-0.3-0.2-0.4-0.2c-0.2-0.1-0.4-0.2-0.6-0.2c0,0,0,0,0,0
		c-0.1,0-0.2-0.1-0.3-0.1c-0.1,0-0.2-0.1-0.3-0.1c-0.1,0-0.2-0.1-0.3-0.1c-0.2-0.1-0.4-0.1-0.6-0.1c-0.2,0-0.4-0.1-0.6-0.1
		c-0.2,0-0.5-0.1-0.7-0.1c-0.2,0-0.4,0-0.6,0c-1.2,0-2.4,0.2-3.4,0.6h0.1l0.7-0.2l0.5-0.1c0.4-0.1,0.8-0.2,1.3-0.2h0.3
		c0.2,0,0.4,0,0.5,0c0.9,0,1.8,0.1,2.7,0.4l0.6,0.2l0.4,0.1c0.1,0,0.2,0.1,0.3,0.1c0.2,0.1,0.4,0.2,0.6,0.3h0.1
		C180.9,55,180.8,54.9,180.7,54.9z M183.7,57.2c0,0-0.1-0.1-0.1-0.1C183.6,57.2,183.7,57.2,183.7,57.2
		C183.7,57.3,183.7,57.3,183.7,57.2z M185.1,60.9c0,0.2,0,0.4,0,0.6v16.9c0-0.2,0-0.3,0-0.5V61.4C185.2,61.2,185.2,61.1,185.1,60.9z
		 M231.4,161.6l-0.1,2.9L231.4,161.6L231.4,161.6z"/>
	<path class="st2" d="M222.2,70.9h-25.8v7c0,9.5-9,17.3-20.1,17.3c-0.4,0-0.9,0-1.3,0c-0.1,0-0.1,0-0.2,0c-0.3,0-0.6,0-0.8-0.1
		c-0.2,0-0.4,0-0.6-0.1c-0.7-0.1-1.4-0.2-2.1-0.4c-0.2,0-0.4-0.1-0.6-0.1c-0.2,0-0.4-0.1-0.6-0.2c-0.2-0.1-0.5-0.1-0.7-0.2
		c-0.3-0.1-0.6-0.2-0.9-0.3c-0.8-0.3-1.5-0.6-2.3-1c-0.3-0.1-0.5-0.3-0.8-0.5c-0.4-0.2-0.8-0.5-1.2-0.7c-0.3-0.2-0.6-0.4-0.9-0.6
		c-0.3-0.3-0.7-0.5-1-0.8c-0.3-0.2-0.6-0.5-0.8-0.7c0,0,0,0,0,0c-0.3-0.3-0.5-0.6-0.8-0.8c-0.3-0.3-0.5-0.6-0.7-0.8c0,0,0,0,0,0
		c-0.2-0.3-0.5-0.6-0.7-0.9c-0.5-0.7-1-1.5-1.3-2.2c-0.1-0.3-0.2-0.5-0.4-0.8c-0.1-0.2-0.2-0.4-0.2-0.5c-0.1-0.2-0.1-0.4-0.2-0.5
		c0,0,0-0.1,0-0.1c-0.1-0.2-0.1-0.4-0.2-0.6c-0.1-0.2-0.1-0.4-0.2-0.6c0-0.1,0-0.1,0-0.2c0-0.2-0.1-0.4-0.1-0.6
		c0-0.2-0.1-0.4-0.1-0.6c0-0.1,0-0.2,0-0.2c0-0.2,0-0.3,0-0.5c0-0.2,0-0.4,0-0.5c0-0.3,0-0.6,0-0.9v-7h-36.6v7c0,4.8-2.3,9.2-6,12.4
		c-0.9,0.7-1.8,1.4-2.8,2c0,0,0,0,0,0c-0.1,0-0.1,0.1-0.2,0.1c-0.5,0.3-0.9,0.5-1.4,0.8c-0.2,0.1-0.4,0.2-0.7,0.3
		c-0.2,0.1-0.4,0.2-0.7,0.3c-0.2,0.1-0.5,0.2-0.7,0.2c-0.2,0.1-0.5,0.2-0.7,0.2c-0.6,0.2-1.2,0.4-1.9,0.5c-0.3,0.1-0.6,0.1-1,0.2
		c-1.3,0.2-2.6,0.3-4,0.3c-0.7,0-1.4,0-2-0.1c-0.3,0-0.7-0.1-1-0.1c-0.3,0-0.6-0.1-0.9-0.1c0,0-0.1,0-0.2,0
		c-6.8-1.2-12.4-5.5-14.8-11c-0.1-0.3-0.2-0.5-0.3-0.8c-0.1-0.3-0.2-0.5-0.3-0.8c-0.1-0.3-0.2-0.5-0.2-0.8c-0.1-0.3-0.1-0.6-0.2-0.8
		c-0.1-0.6-0.2-1.2-0.2-1.7c0-0.3,0-0.6,0-0.9v-7H53.8c-3.2,0-5.9,2.3-5.9,5.1v121.2c0,2.8,2.6,5.1,5.9,5.1h168.5c0.2,0,0.4,0,0.6,0
		c0.1,0,0.2,0,0.3,0c0.1,0,0.2,0,0.4-0.1c0,0,0.1,0,0.1,0c0.1,0,0.3-0.1,0.4-0.1c0.1,0,0.2,0,0.2-0.1c0.1,0,0.2-0.1,0.3-0.1
		c0.1,0,0.2-0.1,0.2-0.1c0.1,0,0.2-0.1,0.3-0.2c0.1,0,0.2-0.1,0.3-0.2c0,0,0,0,0,0c0.2-0.1,0.3-0.2,0.4-0.3c0.3-0.2,0.6-0.4,0.8-0.7
		c0.1-0.1,0.2-0.2,0.3-0.4c0.1-0.1,0.2-0.3,0.3-0.4c0.1-0.2,0.2-0.3,0.2-0.5c0.1-0.1,0.1-0.3,0.2-0.5c0.2-0.5,0.3-1,0.3-1.5V75.9
		C228.1,73.1,225.5,70.9,222.2,70.9z M205.6,182.7H70.4v-74.2h135.2V182.7z"/>
	<path class="st2" d="M108.4,61.4v16.4c0,4.2-3.9,7.6-8.8,7.6c-2.3,0-4.4-0.8-5.9-2l0,0c-0.1-0.1-0.2-0.2-0.4-0.3c0,0,0,0-0.1-0.1
		c-0.3-0.2-0.5-0.5-0.7-0.7c-0.1-0.1-0.2-0.2-0.3-0.3c-0.1-0.1-0.2-0.2-0.3-0.4c-0.1-0.1-0.2-0.2-0.2-0.4c-0.1-0.1-0.2-0.2-0.2-0.4
		c-0.1-0.1-0.1-0.3-0.2-0.4c-0.1-0.3-0.2-0.6-0.3-0.9c-0.2-0.6-0.2-1.1-0.2-1.7V61.4c0-2.6,1.5-4.9,3.9-6.3c0.2-0.1,0.5-0.3,0.7-0.4
		c0.3-0.2,0.7-0.3,1-0.4c0.2,0,0.4-0.1,0.5-0.2c0.1,0,0.3-0.1,0.4-0.1c0.1,0,0.3-0.1,0.4-0.1c0.1,0,0.1,0,0.2,0c0.2,0,0.3,0,0.4-0.1
		c0.1,0,0.3,0,0.4,0c0.2,0,0.5,0,0.7,0c0.3,0,0.6,0,0.9,0c0.3,0,0.6,0.1,0.9,0.1c0.2,0,0.4,0.1,0.6,0.1
		C105.7,55,108.4,58,108.4,61.4z"/>
	<path class="st2" d="M185.2,61.4v16.4c0,0.2,0,0.4,0,0.5c0,0,0,0,0,0c-0.2,2.4-1.7,4.4-3.8,5.7c-0.1,0.1-0.2,0.1-0.4,0.2
		c-0.2,0.1-0.4,0.2-0.5,0.3c-0.1,0-0.1,0.1-0.2,0.1c-0.2,0.1-0.3,0.1-0.5,0.2c-1,0.4-2.1,0.5-3.3,0.5c-4.8,0-8.8-3.5-8.8-7.6V61.4
		c0-0.4,0-0.7,0.1-1c0-0.2,0-0.3,0.1-0.5c0.1-0.5,0.3-1,0.5-1.4c0-0.1,0.1-0.2,0.1-0.2c0-0.1,0.1-0.2,0.2-0.3
		c0.1-0.2,0.2-0.3,0.3-0.4c0.1-0.1,0.2-0.2,0.2-0.3c0.2-0.2,0.3-0.4,0.5-0.6c0.1-0.1,0.2-0.2,0.4-0.4c0.1-0.1,0.2-0.2,0.3-0.2
		c0.2-0.1,0.3-0.3,0.5-0.4c0.2-0.1,0.4-0.2,0.5-0.4l0.5-0.3c0.2-0.1,0.4-0.2,0.5-0.3c0.2-0.1,0.4-0.2,0.6-0.2c1-0.4,2.2-0.6,3.4-0.6
		c2.7,0,5.1,1.1,6.7,2.7l0,0c0,0,0,0,0.1,0.1c0.3,0.3,0.5,0.6,0.7,0.9c0,0,0,0,0,0c0.1,0.2,0.3,0.4,0.4,0.6c0,0,0,0,0,0
		c0.2,0.3,0.4,0.7,0.5,1c0,0.1,0.1,0.3,0.1,0.4c0,0.1,0.1,0.3,0.1,0.4c0,0.1,0.1,0.3,0.1,0.4c0,0.1,0,0.3,0,0.4
		C185.2,61.1,185.2,61.2,185.2,61.4z"/>
	<rect x="94.9" y="124.1" class="st2" width="20.3" height="17.5"/>
	<rect x="94.9" y="150.3" class="st2" width="20.3" height="17.5"/>
	<rect x="127.9" y="124.1" class="st2" width="20.3" height="17.5"/>
	<rect x="127.9" y="150.3" class="st2" width="20.3" height="17.5"/>
	<rect x="160.8" y="124.1" class="st2" width="20.3" height="17.5"/>
	<path class="st2" d="M197.2,165.7L197.2,165.7L197.2,165.7L197.2,165.7L197.2,165.7z M189.7,165.8
		C189.7,165.8,189.7,165.8,189.7,165.8L189.7,165.8L189.7,165.8L189.7,165.8L189.7,165.8C189.7,165.8,189.7,165.8,189.7,165.8
		L189.7,165.8z M189.7,165.8C189.7,165.8,189.7,165.8,189.7,165.8C189.7,165.9,189.7,165.9,189.7,165.8L189.7,165.8z M177,155.5
		c0,0,0,0.1,0,0.1l0,0L177,155.5C177,155.6,177,155.6,177,155.5z M197.2,165.7L197.2,165.7L197.2,165.7L197.2,165.7L197.2,165.7z
		 M197.2,165.7L197.2,165.7L197.2,165.7L197.2,165.7L197.2,165.7z M197.1,165.7L197.1,165.7L197.1,165.7L197.1,165.7z M189.7,165.8
		C189.7,165.8,189.7,165.8,189.7,165.8L189.7,165.8L189.7,165.8C189.8,165.8,189.8,165.8,189.7,165.8L189.7,165.8z M189.7,165.8
		C189.7,165.8,189.7,165.8,189.7,165.8L189.7,165.8L189.7,165.8L189.7,165.8L189.7,165.8L189.7,165.8L189.7,165.8L189.7,165.8z
		 M177,155.5c0,0,0,0.1,0,0.1l0,0L177,155.5C177,155.6,177,155.6,177,155.5z M197.2,165.7L197.2,165.7L197.2,165.7L197.2,165.7
		L197.2,165.7z M197.2,165.7L197.2,165.7L197.2,165.7l-0.1,0l-0.1,0L197.2,165.7L197.2,165.7L197.2,165.7L197.2,165.7z M194.2,165.1
		l-0.9,0.1c-0.5,0-1,0.1-1.5,0.1h-0.7c-0.3,0-0.5,0-0.8,0c0,0-0.1,0-0.1,0c-0.1,0-0.1,0-0.2,0.1c0,0-0.1,0.1-0.1,0.1
		c0,0,0.1,0,0.1-0.1h0c0,0,0.1,0,0.1,0c0,0,0.1,0,0.1,0c0.2,0,0.5,0,0.8,0c0.1,0,0.3,0,0.4,0c0.3,0,0.5,0,0.8,0c0,0,0,0,0,0h0.1
		c0.2,0,0.5,0,0.8,0c0.1,0,0.2,0,0.2,0c0.2,0,0.5,0,0.7-0.1C194.1,165.2,194.2,165.2,194.2,165.1c0.1,0.1,0.2,0.1,0.2,0.1h0
		c0,0,0.1,0,0.1,0c0.1,0,0.3,0,0.4-0.1H194.2z M189.8,165.8C189.8,165.9,189.8,165.9,189.8,165.8
		C189.8,165.8,189.8,165.8,189.8,165.8C189.8,165.8,189.8,165.8,189.8,165.8z M189.7,165.8C189.7,165.8,189.7,165.8,189.7,165.8
		C189.7,165.8,189.7,165.8,189.7,165.8L189.7,165.8L189.7,165.8L189.7,165.8L189.7,165.8L189.7,165.8L189.7,165.8
		C189.7,165.9,189.7,165.8,189.7,165.8L189.7,165.8L189.7,165.8C189.7,165.8,189.7,165.8,189.7,165.8L189.7,165.8
		C189.8,165.8,189.8,165.8,189.7,165.8L189.7,165.8z M189.7,165.8C189.7,165.8,189.7,165.8,189.7,165.8
		C189.7,165.9,189.7,165.9,189.7,165.8L189.7,165.8z M189.7,165.8L189.7,165.8L189.7,165.8C189.7,165.8,189.7,165.8,189.7,165.8
		C189.7,165.8,189.7,165.8,189.7,165.8z M189.7,165.8L189.7,165.8L189.7,165.8C189.7,165.8,189.7,165.8,189.7,165.8L189.7,165.8z
		 M177,155.5c0,0,0,0.1,0,0.1l0,0L177,155.5C177,155.6,177,155.6,177,155.5z M177,155.7L177,155.7C177,155.7,177,155.7,177,155.7
		L177,155.7C177,155.7,177,155.7,177,155.7z M177,155.5L177,155.5C177,155.6,177,155.5,177,155.5C177,155.5,177,155.5,177,155.5z
		 M178,150.3L178,150.3L178,150.3L178,150.3z M182.4,152.3c-0.1,0-0.1,0-0.2,0c0,0,0,0-0.1,0c0,0,0,0-0.1,0c0,0,0,0,0,0h0.2
		c0.2,0,0.4,0.1,0.6,0.3c0,0,0.1,0.1,0.1,0.1v0.1c0,0.1,0,0.1,0,0.2v0.1c0,0.1,0,0.2-0.1,0.2l0,0.1c0,0-0.1,0.1-0.1,0.1l-1,0.7
		l-0.9,0.7c0,0-0.1,0-0.1,0c0,0,0.1,0,0.1,0c0,0,0,0,0,0c0,0,0.1,0,0.1,0l0.9-0.7l1-0.7c0.1-0.1,0.2-0.3,0.3-0.5c0-0.1,0-0.1,0-0.2
		C183.1,152.7,182.8,152.3,182.4,152.3z M197.2,165.7L197.2,165.7L197.2,165.7L197.2,165.7L197.2,165.7z M197.2,165.7L197.2,165.7
		L197.2,165.7l-0.1,0l-0.1,0L197.2,165.7L197.2,165.7L197.2,165.7L197.2,165.7z M189.8,165.8C189.8,165.9,189.8,165.9,189.8,165.8
		C189.8,165.8,189.8,165.8,189.8,165.8C189.8,165.8,189.8,165.8,189.8,165.8z M189.7,165.8C189.7,165.8,189.7,165.8,189.7,165.8
		C189.7,165.8,189.7,165.8,189.7,165.8L189.7,165.8L189.7,165.8L189.7,165.8L189.7,165.8L189.7,165.8L189.7,165.8
		C189.7,165.9,189.7,165.8,189.7,165.8L189.7,165.8L189.7,165.8C189.7,165.8,189.7,165.8,189.7,165.8L189.7,165.8
		C189.8,165.8,189.8,165.8,189.7,165.8L189.7,165.8z M189.7,165.8C189.7,165.8,189.7,165.8,189.7,165.8
		C189.7,165.9,189.7,165.9,189.7,165.8L189.7,165.8z M189.7,165.8L189.7,165.8L189.7,165.8C189.7,165.8,189.7,165.8,189.7,165.8
		C189.7,165.8,189.7,165.8,189.7,165.8z M189.7,165.8L189.7,165.8L189.7,165.8C189.7,165.8,189.7,165.8,189.7,165.8L189.7,165.8z
		 M177,155.7L177,155.7C177,155.7,177,155.7,177,155.7L177,155.7C177,155.7,177,155.7,177,155.7z M177,155.5c0,0,0,0.1,0,0.1l0,0
		L177,155.5C177,155.6,177,155.6,177,155.5z M177,155.5L177,155.5C177,155.6,177,155.5,177,155.5C177,155.5,177,155.5,177,155.5z
		 M177,155.5c0,0,0,0.1,0,0.1l0,0L177,155.5C177,155.6,177,155.6,177,155.5z M177,155.5L177,155.5C177,155.6,177,155.5,177,155.5
		C177,155.5,177,155.5,177,155.5z M177,155.7L177,155.7C177,155.7,177,155.7,177,155.7L177,155.7C177,155.7,177,155.7,177,155.7z
		 M169.4,149.7L169.4,149.7C169.4,149.7,169.4,149.7,169.4,149.7L169.4,149.7z M197.2,165.7L197.2,165.7L197.2,165.7L197.2,165.7
		L197.2,165.7z M197.2,165.7L197.2,165.7L197.2,165.7l-0.1,0l-0.1,0L197.2,165.7L197.2,165.7L197.2,165.7L197.2,165.7z M194.2,165.1
		l-0.9,0.1c-0.5,0-1,0.1-1.5,0.1h-0.7c-0.3,0-0.5,0-0.8,0c0,0-0.1,0-0.1,0c-0.1,0-0.1,0-0.2,0.1c0,0-0.1,0.1-0.1,0.1
		c0,0,0.1,0,0.1-0.1h0c0,0,0.1,0,0.1,0c0,0,0.1,0,0.1,0c0.2,0,0.5,0,0.8,0c0.1,0,0.3,0,0.4,0c0.3,0,0.5,0,0.8,0c0,0,0,0,0,0h0.1
		c0.2,0,0.5,0,0.8,0c0.1,0,0.2,0,0.2,0c0.2,0,0.5,0,0.7-0.1C194.1,165.2,194.2,165.2,194.2,165.1c0.1,0.1,0.2,0.1,0.2,0.1h0
		c0,0,0.1,0,0.1,0c0.1,0,0.3,0,0.4-0.1H194.2z M189.8,165.8C189.8,165.9,189.8,165.9,189.8,165.8
		C189.8,165.8,189.8,165.8,189.8,165.8C189.8,165.8,189.8,165.8,189.8,165.8z M189.7,165.8C189.7,165.8,189.7,165.8,189.7,165.8
		C189.7,165.8,189.7,165.8,189.7,165.8L189.7,165.8L189.7,165.8L189.7,165.8L189.7,165.8L189.7,165.8L189.7,165.8
		C189.7,165.9,189.7,165.8,189.7,165.8L189.7,165.8L189.7,165.8C189.7,165.8,189.7,165.8,189.7,165.8L189.7,165.8
		C189.8,165.8,189.8,165.8,189.7,165.8L189.7,165.8z M189.7,165.8C189.7,165.8,189.7,165.8,189.7,165.8
		C189.7,165.9,189.7,165.9,189.7,165.8L189.7,165.8z M189.7,165.8L189.7,165.8L189.7,165.8C189.7,165.8,189.7,165.8,189.7,165.8
		C189.7,165.8,189.7,165.8,189.7,165.8z M197.2,165.7L197.2,165.7L197.2,165.7L197.2,165.7L197.2,165.7z M197.2,165.7L197.2,165.7
		L197.2,165.7l-0.1,0l-0.1,0L197.2,165.7L197.2,165.7L197.2,165.7L197.2,165.7z M189.8,165.8C189.8,165.9,189.8,165.9,189.8,165.8
		C189.8,165.8,189.8,165.8,189.8,165.8C189.8,165.8,189.8,165.8,189.8,165.8z M189.7,165.8C189.7,165.8,189.7,165.8,189.7,165.8
		C189.7,165.8,189.7,165.8,189.7,165.8L189.7,165.8L189.7,165.8L189.7,165.8L189.7,165.8L189.7,165.8L189.7,165.8
		C189.7,165.9,189.7,165.8,189.7,165.8L189.7,165.8L189.7,165.8C189.7,165.8,189.7,165.8,189.7,165.8L189.7,165.8
		C189.8,165.8,189.8,165.8,189.7,165.8L189.7,165.8z M189.7,165.8C189.7,165.8,189.7,165.8,189.7,165.8
		C189.7,165.9,189.7,165.9,189.7,165.8L189.7,165.8z M189.7,165.8L189.7,165.8L189.7,165.8C189.7,165.8,189.7,165.8,189.7,165.8
		C189.7,165.8,189.7,165.8,189.7,165.8z M177,155.5c0,0,0,0.1,0,0.1l0,0L177,155.5C177,155.6,177,155.6,177,155.5z M177,155.5
		L177,155.5C177,155.6,177,155.5,177,155.5C177,155.5,177,155.5,177,155.5z M177,155.7L177,155.7C177,155.7,177,155.7,177,155.7
		L177,155.7C177,155.7,177,155.7,177,155.7z M177,155.5c0,0,0,0.1,0,0.1l0,0L177,155.5C177,155.6,177,155.6,177,155.5z M177,155.5
		L177,155.5C177,155.6,177,155.5,177,155.5C177,155.5,177,155.5,177,155.5z M177,155.7C177,155.7,177,155.7,177,155.7L177,155.7
		C177,155.7,177,155.7,177,155.7L177,155.7z M169.4,149.7L169.4,149.7C169.4,149.7,169.4,149.7,169.4,149.7L169.4,149.7z
		 M197.2,165.7L197.2,165.7L197.2,165.7L197.2,165.7L197.2,165.7z M197.2,165.7L197.2,165.7l-0.1,0l-0.1,0L197.2,165.7L197.2,165.7
		L197.2,165.7L197.2,165.7L197.2,165.7z M193.3,165.2c-0.5,0-1,0.1-1.5,0.1h-0.7c-0.3,0-0.5,0-0.8,0c0,0-0.1,0-0.1,0
		c-0.1,0-0.1,0-0.2,0.1c0,0-0.1,0.1-0.1,0.1c0,0,0.1,0,0.1-0.1h0c0,0,0.1,0,0.1,0c0,0,0.1,0,0.1,0c0.2,0,0.5,0,0.8,0
		c0.1,0,0.3,0,0.4,0c0.3,0,0.5,0,0.8,0c0,0,0,0,0,0h0.1c0.2,0,0.5,0,0.8,0C193.2,165.2,193.3,165.2,193.3,165.2c0.3,0.1,0.5,0,0.8,0
		c0,0,0.1,0,0.2,0c0,0,0.1,0,0.1,0h0c0,0,0.1,0,0.1,0c0.1,0,0.3,0,0.4-0.1h-0.7L193.3,165.2z M189.8,165.9
		C189.8,165.8,189.8,165.8,189.8,165.9C189.8,165.8,189.8,165.8,189.8,165.9C189.8,165.9,189.8,165.9,189.8,165.9z M189.7,165.8
		C189.7,165.8,189.7,165.8,189.7,165.8C189.7,165.8,189.7,165.8,189.7,165.8L189.7,165.8L189.7,165.8L189.7,165.8L189.7,165.8
		L189.7,165.8L189.7,165.8C189.7,165.9,189.7,165.8,189.7,165.8L189.7,165.8L189.7,165.8C189.7,165.8,189.7,165.8,189.7,165.8
		L189.7,165.8C189.8,165.8,189.8,165.8,189.7,165.8L189.7,165.8z M189.7,165.9C189.7,165.9,189.7,165.9,189.7,165.9L189.7,165.9
		C189.7,165.8,189.7,165.8,189.7,165.9z M189.7,165.8L189.7,165.8L189.7,165.8C189.7,165.8,189.7,165.8,189.7,165.8
		C189.7,165.8,189.7,165.8,189.7,165.8z M197.3,165.6L197.3,165.6L197.3,165.6L197.3,165.6L197.3,165.6z M197.2,165.7L197.2,165.7
		L197.2,165.7L197.2,165.7L197.2,165.7l-0.1,0l-0.1,0L197.2,165.7L197.2,165.7z M189.8,165.9C189.8,165.8,189.8,165.8,189.8,165.9
		C189.8,165.8,189.8,165.8,189.8,165.9C189.8,165.9,189.8,165.9,189.8,165.9z M189.7,165.9L189.7,165.9L189.7,165.9
		C189.7,165.9,189.7,165.8,189.7,165.9L189.7,165.9L189.7,165.9C189.7,165.8,189.7,165.8,189.7,165.9L189.7,165.9
		C189.8,165.8,189.8,165.8,189.7,165.9L189.7,165.9C189.7,165.8,189.7,165.8,189.7,165.9C189.7,165.8,189.7,165.8,189.7,165.9
		L189.7,165.9L189.7,165.9L189.7,165.9L189.7,165.9z M189.7,165.8L189.7,165.8C189.7,165.8,189.7,165.8,189.7,165.8
		C189.7,165.9,189.7,165.9,189.7,165.8z M189.7,165.8C189.7,165.8,189.7,165.8,189.7,165.8L189.7,165.8L189.7,165.8
		C189.7,165.8,189.7,165.8,189.7,165.8z M177,155.6L177,155.6c0,0,0-0.1,0-0.1C177,155.6,177,155.6,177,155.6L177,155.6z M177,155.5
		L177,155.5C177,155.6,177,155.5,177,155.5C177,155.5,177,155.5,177,155.5z M177,155.7L177,155.7C177,155.7,177,155.7,177,155.7
		L177,155.7C177,155.7,177,155.7,177,155.7z M199.9,161.1L199.9,161.1c0.1-1-0.4-2.1-1.3-2.6c-0.9-0.5-1.9-0.9-2.9-1.1
		c-1.4-0.4-2.7-0.7-3.9-1.1c0-0.1-0.1-0.1-0.1-0.2c-0.3-0.5-0.9-0.9-1.5-0.9c-0.3,0-0.7,0-0.9,0.2l-0.9-0.3l-0.2-0.1
		c0-0.3-0.1-0.6-0.3-0.9c-0.3-0.5-0.9-0.9-1.6-0.9c-0.4,0-0.8,0.1-1.1,0.3l-0.2,0.1h-0.1c-0.1-0.1-0.2-0.1-0.4-0.2
		c-0.1-0.1-0.2-0.1-0.3-0.1c0-0.4-0.1-0.9-0.3-1.2c-0.3-0.5-0.9-0.9-1.5-0.9c-0.4,0-0.8,0.1-1.1,0.3l-0.1,0.1l-0.1-0.1
		c-0.1,0-0.2-0.1-0.3-0.2l-0.4-0.2c0-0.4-0.1-0.7-0.3-1.1c-0.3-0.5-0.9-0.9-1.5-0.9c-0.4,0-0.8,0.1-1.1,0.3h-0.1l-3-2.3
		c-0.5-0.4-1.1-0.5-1.7-0.2l-3.2,1.4c-0.2,0.1-0.4,0.2-0.5,0.3l0,0c-0.2,0.2-0.4,0.5-0.5,0.8c-0.1,0.5,0,1.1,0.3,1.6l0.4,0.6l0,0.1
		c-0.3,0.1-0.5,0.2-0.8,0.2c-2.2,0.6-4.4,0.8-6.7,0.6c-1.4-0.1-2.9-0.2-4.3-0.5c-0.3,0-0.6,0.1-0.9,0.2c0,0,0,0,0,0.1
		c-0.2,0.2-0.3,0.4-0.3,0.6v0c-0.4,2.8-0.4,5.7,0,8.5c0,0.2,0.1,0.4,0.1,0.6l0.1,0.3l-0.2,3c-0.1,1.1,0.7,2,1.8,2.2l27.2,1.4
		c9,0.4,13.3-0.4,14.2-2c0,0,0.1-0.1,0.1-0.1C200.1,165.3,200,161.3,199.9,161.1z M158,166C158,166,158,166,158,166
		c-0.1,0-0.1,0-0.2,0c-0.1,0-0.1,0-0.2-0.1l-0.1-0.1c0-0.1-0.1-0.1-0.1-0.2c0,0,0,0,0,0c0,0,0,0,0-0.1c0,0,0-0.1,0-0.1v-0.1l0.1-2.8
		l28.8,1.5c3.9,0.2,7.8-0.1,11.6-0.9l0.3-0.1l0.3-0.1v0.6c0,0-0.1,0.1-0.1,0.1c-0.1,0.1-0.1,0.2-0.2,0.3c0,0,0,0,0,0
		c-0.1,0.1-0.2,0.2-0.3,0.2c-0.1,0-0.2,0.1-0.2,0.1c-0.1,0.1-0.3,0.1-0.5,0.2c-0.4,0.1-0.9,0.3-1.3,0.3l-0.3,0.1l-0.7,0.1h-0.8
		l-0.9,0.1c-0.5,0-1,0.1-1.5,0.1h-0.7c-0.3,0-0.5,0-0.8,0c0,0-0.1,0-0.1,0c-0.1,0-0.1,0-0.2,0.1c0,0-0.1,0.1-0.1,0.1c0,0,0,0,0,0
		c0,0,0,0.1-0.1,0.2c0,0,0,0,0,0s0,0,0,0c0,0,0,0.1,0,0.1c0,0,0,0.1,0,0.1c0,0,0,0.1,0.1,0.1l0.1,0.1c0.1,0,0.1,0.1,0.2,0.1h2.5
		l0.8-0.1c0.9-0.1,1.8-0.2,2.8-0.4c0.2,0,0.3-0.1,0.5-0.1h0.2l0.2-0.1l0.1-0.1l0.2,0h0.1l0.4-0.2l0.5-0.2v0.1
		c-0.1,0.3-0.1,0.3-0.1,0.3c0,0,0,0.1,0,0.1c0,0.1,0,0.1-0.1,0.2l-0.1,0.1c-0.4,0.6-3.5,1.9-13,1.5L158,166L158,166z M187.9,157.8
		l0.5-0.4l1.4-1c0,0,0.1-0.1,0.2-0.1c0,0,0.1,0,0.1,0h0.3l0.1,0h0.1c0,0,0,0,0.1,0.1c0,0,0,0,0.1,0.1c0,0,0,0,0.1,0.1
		c0,0,0,0.1,0.1,0.1c0,0,0,0.1,0,0.1c0,0.1,0,0.2,0,0.4c0,0,0,0.1,0,0.1v0.1c0,0.1-0.1,0.1-0.2,0.2l-0.5,0.3l-1.4,1l-0.2,0.1
		c-0.2,0.1-0.4,0-0.6-0.1c0,0,0,0-0.1,0c0,0-0.1-0.1-0.1-0.1c0-0.1-0.1-0.1-0.1-0.2c0,0,0-0.1,0-0.1l0-0.1c0,0,0,0,0-0.1v0h-0.1
		C187.7,158.1,187.8,158,187.9,157.8z M183.8,156.2L183.8,156.2l-0.1-0.1c0-0.1,0.1-0.1,0.1-0.2l0.1-0.1l0.1-0.1l0.1-0.1l1.1-0.8
		l0.1-0.1l0.4-0.3l0.1-0.1l0.1,0c0.1,0,0.1,0,0.2,0c0.3,0,0.6,0.3,0.7,0.6v0.2c0,0,0,0.1,0,0.2c0,0.1,0,0.1,0,0.2
		c0,0.1,0,0.1-0.1,0.2c0,0-0.1,0.1-0.1,0.1l-0.8,0.5l-0.1,0.1l-0.9,0.6l-0.1,0.1c-0.3,0.2-0.7,0.1-1-0.2c0,0,0,0,0-0.1
		c0-0.1-0.1-0.1-0.1-0.2C183.6,156.5,183.7,156.3,183.8,156.2z M180.1,153.7L180.1,153.7l0.2-0.2l1.5-1.1h0.1c0.1,0,0.1-0.1,0.2-0.1
		h0.2c0.2,0,0.4,0.1,0.6,0.3c0,0,0.1,0.1,0.1,0.1v0.1c0,0.1,0,0.1,0,0.2v0.1c0,0.1,0,0.2-0.1,0.2l0,0.1c0,0-0.1,0.1-0.1,0.1l-1,0.7
		l-0.9,0.7c0,0-0.1,0-0.1,0c0,0,0,0,0,0c-0.3,0.1-0.6,0-0.8-0.2c0,0,0,0,0-0.1c-0.1-0.2-0.2-0.4-0.1-0.6
		C179.7,154,179.9,153.8,180.1,153.7z M176.2,151.7L176.2,151.7l0.4-0.3l0.8-0.6l0.1-0.1l0.4-0.3h0l0,0l0.1-0.1l0,0h0.1
		c0,0,0,0,0.1,0c0,0,0,0,0.1,0h0.2c0,0,0.1,0,0.1,0.1c0.1,0.1,0.2,0.1,0.2,0.2c0,0,0.1,0.1,0.1,0.2c0,0.1,0,0.2,0,0.3v0.3
		c0,0,0,0.1-0.1,0.1c0,0.1-0.1,0.2-0.2,0.2l-0.8,0.6l-1.1,0.8c-0.1,0-0.2,0.1-0.3,0.1c-0.3,0-0.5-0.1-0.7-0.3
		c-0.1-0.2-0.1-0.4-0.1-0.6C175.8,151.9,176,151.8,176.2,151.7z M169.5,149.4c0,0,0.1-0.1,0.1-0.1c0,0,0.1-0.1,0.1-0.1l0.9-0.4h0
		l1.1-0.5l0.1,0l1.1-0.5h0.2c0.2,0,0.3,0,0.5,0.1l1.2,0.9l0.4,0.3l-0.2,0.1l-0.2,0l-0.5,0.2c-0.1,0-0.2,0.1-0.2,0.1
		c-0.2,0.1-0.4,0.2-0.6,0.2c-0.1,0-0.2,0.1-0.4,0.2c-0.2,0.1-0.3,0.2-0.5,0.2c-0.7,0.4-1.5,0.7-2.4,1.1h0c0,0,0,0-0.1,0l-0.7-0.9
		c-0.1-0.2-0.1-0.4-0.1-0.6c0,0,0,0,0,0h0l0,0C169.4,149.6,169.4,149.5,169.5,149.4z M160.3,155.4L160.3,155.4L160.3,155.4l0.2,0
		l0.5,0.1l0.2,0c0.1,0,0.2,0,0.3,0.1c0.1,0,0.2,0,0.3,0.1c0,0,0,0,0.1,0c0.2,0,0.4,0.1,0.6,0.2c0.1,0,0.1,0,0.2,0
		c0.2,0,0.3,0.1,0.5,0.1c0.1,0,0.3,0.1,0.4,0.1c0,0,0.1,0,0.1,0c0.5,0.1,1,0.2,1.5,0.4c0.2,0,0.5,0.1,0.7,0.2h0
		c0.6,0.2,1.3,0.3,1.9,0.5l0.7,0.2h0.2l0.8,0.2l0.9,0.2l0.8,0.2c1,0.2,1.8,0.4,2.5,0.5c0.3,0.1,0.7,0.1,1,0h0.2l0.2,0
		c0.2-0.1,0.4-0.2,0.5-0.3c0.1,0,0.1-0.1,0.2-0.2l0.2-0.2c0.1-0.1,0.2-0.2,0.3-0.4c0-0.1,0.1-0.2,0.1-0.3c0.1-0.1,0.1-0.2,0.1-0.4
		c0-0.1,0.1-0.2,0.1-0.3c0-0.1,0-0.2,0.1-0.3c0.1-0.1,0-0.2,0-0.3v-0.2c0-0.1,0-0.1,0-0.2v-0.2c0,0,0.1,0.1,0.1,0.1
		c0,0,0.1,0.1,0.1,0.2c0,0,0,0,0,0.1c0,0,0,0,0,0.1l0.2,0.4l0.1,0.2c0.1,0.2,0.1,0.3,0.2,0.5l0.1,0.3c0,0.1,0.1,0.2,0.1,0.3
		c0,0.1,0,0.2,0.1,0.3c0,0.3,0,0.5,0,0.8v0.1c0,0.1,0,0.1,0,0.2v0.3c0,0.1-0.1,0.2-0.1,0.3c0,0.1-0.1,0.2-0.2,0.3
		c-0.1,0.1-0.1,0.2-0.2,0.3c-0.2,0.2-0.4,0.4-0.6,0.5c-0.1,0.1-0.2,0.1-0.4,0.2c0,0,0,0-0.1,0c-0.1,0-0.2,0.1-0.4,0.1H176l-0.5,0.1
		H175c-0.3,0-0.6,0-0.9,0H174c0,0-0.1,0-0.2,0c-0.1,0-0.2,0-0.4,0c-0.1,0-0.2,0-0.2,0c-0.1,0-0.1,0-0.2,0h-0.2l-0.4-0.1l-0.6-0.1
		l-0.6-0.2c-0.4-0.1-0.8-0.2-1.2-0.4l-0.6-0.2c-0.6-0.2-1.2-0.4-1.8-0.7c-0.4-0.1-0.8-0.3-1.2-0.5l-0.6-0.3
		c-0.6-0.2-1.1-0.5-1.6-0.8l-1-0.5l-0.9-0.5l-0.8-0.4l-1.5-0.8H160.3z M177,155.7L177,155.7C177,155.7,177,155.7,177,155.7
		L177,155.7C177,155.7,177,155.7,177,155.7z M177,155.5L177,155.5C177,155.6,177,155.5,177,155.5C177,155.5,177,155.5,177,155.5z
		 M177,155.5c0,0,0,0.1,0,0.1l0,0L177,155.5C177,155.6,177,155.6,177,155.5z M189.7,165.8L189.7,165.8L189.7,165.8
		C189.7,165.8,189.7,165.8,189.7,165.8C189.7,165.8,189.7,165.8,189.7,165.8z M189.7,165.8C189.7,165.8,189.7,165.8,189.7,165.8
		C189.7,165.9,189.7,165.9,189.7,165.8L189.7,165.8z M189.7,165.8C189.7,165.8,189.7,165.8,189.7,165.8
		C189.7,165.8,189.7,165.8,189.7,165.8L189.7,165.8L189.7,165.8L189.7,165.8L189.7,165.8L189.7,165.8L189.7,165.8
		C189.7,165.9,189.7,165.8,189.7,165.8L189.7,165.8L189.7,165.8C189.7,165.8,189.7,165.8,189.7,165.8L189.7,165.8
		C189.8,165.8,189.8,165.8,189.7,165.8L189.7,165.8z M189.8,165.8C189.8,165.9,189.8,165.9,189.8,165.8
		C189.8,165.8,189.8,165.8,189.8,165.8C189.8,165.8,189.8,165.8,189.8,165.8z M197.2,165.7L197.2,165.7L197.2,165.7l-0.1,0l-0.1,0
		L197.2,165.7L197.2,165.7L197.2,165.7L197.2,165.7z M197.2,165.7L197.2,165.7L197.2,165.7L197.2,165.7L197.2,165.7z M189.7,165.8
		L189.7,165.8L189.7,165.8C189.7,165.8,189.7,165.8,189.7,165.8C189.7,165.8,189.7,165.8,189.7,165.8z M189.7,165.8
		C189.7,165.8,189.7,165.8,189.7,165.8C189.7,165.9,189.7,165.9,189.7,165.8L189.7,165.8z M189.7,165.8
		C189.7,165.8,189.7,165.8,189.7,165.8C189.7,165.8,189.7,165.8,189.7,165.8L189.7,165.8L189.7,165.8L189.7,165.8L189.7,165.8
		L189.7,165.8L189.7,165.8C189.7,165.9,189.7,165.8,189.7,165.8L189.7,165.8L189.7,165.8C189.7,165.8,189.7,165.8,189.7,165.8
		L189.7,165.8C189.8,165.8,189.8,165.8,189.7,165.8L189.7,165.8z M189.8,165.8C189.8,165.9,189.8,165.9,189.8,165.8
		C189.8,165.8,189.8,165.8,189.8,165.8C189.8,165.8,189.8,165.8,189.8,165.8z M194.2,165.1l-0.9,0.1c-0.5,0-1,0.1-1.5,0.1h-0.7
		c-0.3,0-0.5,0-0.8,0c0,0-0.1,0-0.1,0c-0.1,0-0.1,0-0.2,0.1c0,0-0.1,0.1-0.1,0.1c0,0,0.1,0,0.1-0.1h0c0,0,0.1,0,0.1,0
		c0,0,0.1,0,0.1,0c0.2,0,0.5,0,0.8,0c0.1,0,0.3,0,0.4,0c0.3,0,0.5,0,0.8,0c0,0,0,0,0,0h0.1c0.2,0,0.5,0,0.8,0c0.1,0,0.2,0,0.2,0
		c0.2,0,0.5,0,0.7-0.1C194.1,165.2,194.2,165.2,194.2,165.1c0.1,0.1,0.2,0.1,0.2,0.1h0c0,0,0.1,0,0.1,0c0.1,0,0.3,0,0.4-0.1H194.2z
		 M197.2,165.7L197.2,165.7L197.2,165.7l-0.1,0l-0.1,0L197.2,165.7L197.2,165.7L197.2,165.7L197.2,165.7z M197.2,165.7L197.2,165.7
		L197.2,165.7L197.2,165.7L197.2,165.7z M178,150.3L178,150.3L178,150.3L178,150.3z M169.4,149.7L169.4,149.7
		C169.4,149.7,169.4,149.7,169.4,149.7L169.4,149.7z M177,155.7L177,155.7C177,155.7,177,155.7,177,155.7L177,155.7
		C177,155.7,177,155.7,177,155.7z M177,155.5L177,155.5C177,155.6,177,155.5,177,155.5C177,155.5,177,155.5,177,155.5z M177,155.5
		c0,0,0,0.1,0,0.1l0,0L177,155.5C177,155.6,177,155.6,177,155.5z M177,155.7L177,155.7C177,155.7,177,155.7,177,155.7L177,155.7
		C177,155.7,177,155.7,177,155.7z M177,155.5L177,155.5C177,155.6,177,155.5,177,155.5C177,155.5,177,155.5,177,155.5z M177,155.5
		c0,0,0,0.1,0,0.1l0,0L177,155.5C177,155.6,177,155.6,177,155.5z M189.7,165.8L189.7,165.8L189.7,165.8
		C189.7,165.8,189.7,165.8,189.7,165.8C189.7,165.8,189.7,165.8,189.7,165.8z M189.7,165.8C189.7,165.8,189.7,165.8,189.7,165.8
		C189.7,165.9,189.7,165.9,189.7,165.8L189.7,165.8z M189.7,165.8C189.7,165.8,189.7,165.8,189.7,165.8
		C189.7,165.8,189.7,165.8,189.7,165.8L189.7,165.8L189.7,165.8L189.7,165.8L189.7,165.8L189.7,165.8L189.7,165.8
		C189.7,165.9,189.7,165.8,189.7,165.8L189.7,165.8L189.7,165.8C189.7,165.8,189.7,165.8,189.7,165.8L189.7,165.8
		C189.8,165.8,189.8,165.8,189.7,165.8L189.7,165.8z M189.8,165.8C189.8,165.9,189.8,165.9,189.8,165.8
		C189.8,165.8,189.8,165.8,189.8,165.8C189.8,165.8,189.8,165.8,189.8,165.8z M197.2,165.7L197.2,165.7L197.2,165.7l-0.1,0l-0.1,0
		L197.2,165.7L197.2,165.7L197.2,165.7L197.2,165.7z M197.2,165.7L197.2,165.7L197.2,165.7L197.2,165.7L197.2,165.7z M189.7,165.8
		L189.7,165.8L189.7,165.8C189.7,165.8,189.7,165.8,189.7,165.8C189.7,165.8,189.7,165.8,189.7,165.8z M189.7,165.8
		C189.7,165.8,189.7,165.8,189.7,165.8C189.7,165.9,189.7,165.9,189.7,165.8L189.7,165.8z M189.7,165.8
		C189.7,165.8,189.7,165.8,189.7,165.8C189.7,165.8,189.7,165.8,189.7,165.8L189.7,165.8L189.7,165.8L189.7,165.8L189.7,165.8
		L189.7,165.8L189.7,165.8C189.7,165.9,189.7,165.8,189.7,165.8L189.7,165.8L189.7,165.8C189.7,165.8,189.7,165.8,189.7,165.8
		L189.7,165.8C189.8,165.8,189.8,165.8,189.7,165.8L189.7,165.8z M189.8,165.8C189.8,165.9,189.8,165.9,189.8,165.8
		C189.8,165.8,189.8,165.8,189.8,165.8C189.8,165.8,189.8,165.8,189.8,165.8z M194.2,165.1l-0.9,0.1c-0.5,0-1,0.1-1.5,0.1h-0.7
		c-0.3,0-0.5,0-0.8,0c0,0-0.1,0-0.1,0c-0.1,0-0.1,0-0.2,0.1c0,0-0.1,0.1-0.1,0.1c0,0,0.1,0,0.1-0.1h0c0,0,0.1,0,0.1,0
		c0,0,0.1,0,0.1,0c0.2,0,0.5,0,0.8,0c0.1,0,0.3,0,0.4,0c0.3,0,0.5,0,0.8,0c0,0,0,0,0,0h0.1c0.2,0,0.5,0,0.8,0c0.1,0,0.2,0,0.2,0
		c0.2,0,0.5,0,0.7-0.1C194.1,165.2,194.2,165.2,194.2,165.1c0.1,0.1,0.2,0.1,0.2,0.1h0c0,0,0.1,0,0.1,0c0.1,0,0.3,0,0.4-0.1H194.2z
		 M197.2,165.7L197.2,165.7L197.2,165.7l-0.1,0l-0.1,0L197.2,165.7L197.2,165.7L197.2,165.7L197.2,165.7z M197.2,165.7L197.2,165.7
		L197.2,165.7L197.2,165.7L197.2,165.7z M182.4,152.3c-0.1,0-0.1,0-0.2,0c0,0,0,0-0.1,0c0,0,0,0-0.1,0c0,0,0,0,0,0h0.2
		c0.2,0,0.4,0.1,0.6,0.3c0,0,0.1,0.1,0.1,0.1v0.1c0,0.1,0,0.1,0,0.2v0.1c0,0.1,0,0.2-0.1,0.2l0,0.1c0,0-0.1,0.1-0.1,0.1l-1,0.7
		l-0.9,0.7c0,0-0.1,0-0.1,0c0,0,0.1,0,0.1,0c0,0,0,0,0,0c0,0,0.1,0,0.1,0l0.9-0.7l1-0.7c0.1-0.1,0.2-0.3,0.3-0.5c0-0.1,0-0.1,0-0.2
		C183.1,152.7,182.8,152.3,182.4,152.3z M178,150.3L178,150.3L178,150.3L178,150.3z M169.4,149.7L169.4,149.7
		C169.4,149.7,169.4,149.7,169.4,149.7L169.4,149.7z M177,155.7L177,155.7C177,155.7,177,155.7,177,155.7L177,155.7
		C177,155.7,177,155.7,177,155.7z M177,155.5L177,155.5C177,155.6,177,155.5,177,155.5C177,155.5,177,155.5,177,155.5z M177,155.5
		c0,0,0,0.1,0,0.1l0,0L177,155.5C177,155.6,177,155.6,177,155.5z M178,150.3L178,150.3L178,150.3L178,150.3z M177,155.7L177,155.7
		C177,155.7,177,155.7,177,155.7L177,155.7C177,155.7,177,155.7,177,155.7z M177,155.5L177,155.5C177,155.6,177,155.5,177,155.5
		C177,155.5,177,155.5,177,155.5z M189.7,165.8L189.7,165.8L189.7,165.8C189.7,165.8,189.7,165.8,189.7,165.8L189.7,165.8
		L189.7,165.8L189.7,165.8L189.7,165.8L189.7,165.8C189.7,165.9,189.7,165.8,189.7,165.8L189.7,165.8z M189.7,165.8L189.7,165.8
		L189.7,165.8C189.7,165.8,189.7,165.8,189.7,165.8C189.7,165.8,189.7,165.8,189.7,165.8z M189.7,165.8L189.7,165.8L189.7,165.8
		C189.7,165.8,189.7,165.8,189.7,165.8L189.7,165.8z M197.2,165.7L197.2,165.7L197.2,165.7L197.2,165.7L197.2,165.7L197.2,165.7z
		 M178,150.3L178,150.3L178,150.3L178,150.3z M189.7,165.8C189.7,165.8,189.7,165.8,189.7,165.8L189.7,165.8L189.7,165.8
		C189.8,165.8,189.8,165.8,189.7,165.8L189.7,165.8z M189.7,165.8C189.7,165.8,189.7,165.8,189.7,165.8L189.7,165.8L189.7,165.8
		L189.7,165.8L189.7,165.8L189.7,165.8L189.7,165.8L189.7,165.8z M197.2,165.7L197.2,165.7L197.2,165.7L197.2,165.7L197.2,165.7z
		 M197.2,165.7L197.2,165.7L197.2,165.7L197.2,165.7L197.2,165.7z M197.1,165.7L197.1,165.7L197.1,165.7L197.1,165.7z M177,155.5
		c0,0,0,0.1,0,0.1l0,0L177,155.5C177,155.6,177,155.6,177,155.5z M189.8,165.8C189.8,165.9,189.8,165.9,189.8,165.8
		C189.8,165.8,189.8,165.8,189.8,165.8C189.8,165.8,189.8,165.8,189.8,165.8z M189.7,165.8L189.7,165.8
		C189.7,165.8,189.7,165.8,189.7,165.8L189.7,165.8z M189.7,165.8L189.7,165.8L189.7,165.8L189.7,165.8
		C189.7,165.9,189.7,165.8,189.7,165.8L189.7,165.8z M197.2,165.7L197.2,165.7L197.2,165.7L197.2,165.7L197.2,165.7z"/>
</g>
<g>
	<path class="st3" d="M256,48.1c-0.4-6.2-4.8-17.9-18.5-17.9c-11.2,0-159.9,0.4-223.3,0.6c-4.9,0-9.3,2.4-12,6.5
		C0.8,39.6,0,42.2,0,44.8c0,1.9,0.4,3.7,1.1,5.5l30.8,70.9c1.9,4.2,1.9,9.1,0,13.4l-30.8,71c0,0,0,0,0,0c-0.8,1.8-1.1,3.6-1.1,5.5
		c0,2.6,0.8,5.2,2.2,7.5c2.6,4,7.1,6.5,12,6.5c78.8,0.2,212.6,0.6,223.3,0.6c13.6,0,18-11.7,18.5-17.9c0-0.1,0-0.2,0-0.2V48.4
		C256,48.3,256,48.2,256,48.1z M249.1,207.5c-0.2,1.6-1.5,11.3-11.5,11.3c-10.7,0-144.5-0.4-223.3-0.6c-2.5,0-4.8-1.2-6.2-3.3
		c-1.3-1.9-1.5-4.3-0.5-6.4h0l30.8-71c2.6-6,2.6-13,0-19L7.5,47.5c-0.9-2.1-0.7-4.5,0.5-6.4c1.3-2.1,3.6-3.3,6.2-3.3
		c63.4-0.2,212.1-0.6,223.3-0.6c10.1,0,11.4,9.8,11.5,11.3V207.5z"/>
</g>
</svg>
