<svg xmlns="http://www.w3.org/2000/svg" width="256" height="246" viewBox="0 0 256 246"><title>icon10</title><g id="Layer_5" data-name="Layer 5"><path d="M230.49,133.29,208.57,199a12.29,12.29,0,0,1-11.67,8.41H39.18a12.32,12.32,0,0,1-12.31-12.31V63.69a12.32,12.32,0,0,1,12.31-12.3H196.9a12.29,12.29,0,0,1,11.67,8.41l21.92,65.7A12.36,12.36,0,0,1,230.49,133.29Z" fill="#fff"/><path d="M255.21,132.88l-27.47,82.35a15.42,15.42,0,0,1-14.63,10.54H15.43A15.45,15.45,0,0,1,.83,215.33V40.67a15.45,15.45,0,0,1,14.6-10.44H213.11a15.42,15.42,0,0,1,14.63,10.54l27.47,82.35A15.51,15.51,0,0,1,255.21,132.88Z" fill="#fff"/></g><g id="Layer_1" data-name="Layer 1"><path d="M249.27,125.1,221.8,42.75a9.14,9.14,0,0,0-8.69-6.25H15.43a9.16,9.16,0,0,0-9.16,9.15V210.34a9.17,9.17,0,0,0,9.16,9.16H213.11a9.16,9.16,0,0,0,8.69-6.26l27.47-82.34A9.14,9.14,0,0,0,249.27,125.1ZM68.73,83.44a31.86,31.86,0,0,1,.52-7.74C70.53,69.52,75.5,65.46,81,65.8A12.26,12.26,0,0,1,92.05,76.64a33.62,33.62,0,0,1,.12,6.58,12.27,12.27,0,0,0,3.07,9.23c6.4,7.73,6.18,17.52-.42,25.13-2.21,2.54-2.66,5.11-2.65,8.18.07,16.57,0,33.13,0,49.7,0,9.65-4.16,14.83-11.8,14.81-7,0-11.68-6-11.72-15.09,0-8.18,0-16.37,0-24.55,0-6-.07-12,0-18,.1-6.56,0-12.6-4.69-18.39C59.12,108.2,60.2,99.15,65.4,93.2A12.9,12.9,0,0,0,68.73,83.44Zm41.9.08a42.31,42.31,0,0,1,.76-7.7c1.16-6,6.23-10.31,11.59-10A12.18,12.18,0,0,1,134.2,77.75c.19,9.17.05,18.36.05,27.55,0,6.19.07,12.37,0,18.56-.09,6.35-.07,12.16,4.68,17.72,5,5.83,3.91,15.77-1.29,21.67a12.69,12.69,0,0,0-3.39,10.29,36.46,36.46,0,0,1,0,4.79c-.42,6.94-4.75,11.63-11,11.93-6,.29-10.7-3.6-12-10.16a30.3,30.3,0,0,1-.61-6.51c.07-3.87-.55-7.09-3.22-10.41-6.07-7.56-5.68-16.75.61-24.12,2.18-2.57,2.59-5.16,2.58-8.22Q110.54,107.17,110.63,83.52Zm69.22,33.16a16.62,16.62,0,0,0-3.75,11.49c.19,16.34.1,32.7.06,49.06,0,8-4.54,13.11-11.52,13s-11.3-5.16-11.34-13.26c-.05-8.37,0-16.74,0-25.13,0-8.17-.14-16.35.05-24.53a14.61,14.61,0,0,0-3.53-10.29c-5.31-6.6-6.78-14.67-1.56-21.58,4.37-5.8,5.06-11.62,5.15-18.29.12-9.13,9.1-14,17.08-9.61a10.33,10.33,0,0,1,5.62,9.85c-.25,6.48.64,12.06,4.89,17.68C186.12,101.91,185.29,109.92,179.85,116.68Z" fill="none"/><path d="M95.24,92.45a12.27,12.27,0,0,1-3.07-9.23,33.62,33.62,0,0,0-.12-6.58A12.26,12.26,0,0,0,81,65.8c-5.48-.34-10.45,3.72-11.73,9.9a31.86,31.86,0,0,0-.52,7.74A12.9,12.9,0,0,1,65.4,93.2c-5.2,6-6.28,15-1.39,21.07,4.66,5.79,4.79,11.83,4.69,18.39-.1,6,0,12,0,18,0,8.18,0,16.37,0,24.55,0,9.13,4.68,15.08,11.72,15.09,7.64,0,11.79-5.16,11.8-14.81,0-16.57,0-33.13,0-49.7,0-3.07.44-5.64,2.65-8.18C101.42,110,101.64,100.18,95.24,92.45ZM76.84,77.26a3.86,3.86,0,0,1,.09-.51.43.43,0,0,1,0,0,3.51,3.51,0,0,1,.15-.49v0a3.22,3.22,0,0,1,.21-.46c0-.1.11-.19.16-.28a1.65,1.65,0,0,1,.26-.32l.11-.11a2.63,2.63,0,0,1,.66-.47,1.94,1.94,0,0,1,.36-.15,2.39,2.39,0,0,1,.46-.12,2,2,0,0,1,.44-.07h0l.19,0h.23a2.55,2.55,0,0,1,.48,0,4.27,4.27,0,0,1,1.56.31,1.79,1.79,0,0,1,.39.2,1.91,1.91,0,0,1,.32.24,2.57,2.57,0,0,1,.5.59A3.94,3.94,0,0,1,84,77.07a2.33,2.33,0,0,1,0,.38,2.56,2.56,0,0,1,0,.39c0,.16,0,.33,0,.5,0,.72,0,1.46,0,2.14,0,.85.08,1.68,0,2.44,0,.15,0,.3,0,.45a3.39,3.39,0,0,1-.1.48,1.21,1.21,0,0,1,0,.18,2.25,2.25,0,0,0-.08.24,2.48,2.48,0,0,1-.32.54,1.7,1.7,0,0,1-.22.24,1.43,1.43,0,0,1-.26.22,1.53,1.53,0,0,1-.3.19,3.08,3.08,0,0,1-.76.28,4.49,4.49,0,0,1-1,.15,7.42,7.42,0,0,1-.83,0,6.21,6.21,0,0,1-1.51-.2l-.26-.08a2.52,2.52,0,0,1-.33-.14l-.13-.07a2.25,2.25,0,0,1-.36-.24A1.07,1.07,0,0,1,77.4,85a1.81,1.81,0,0,1-.4-.59,6,6,0,0,1-.26-2.71c0-.38,0-.77,0-1.14A23.19,23.19,0,0,1,76.84,77.26Zm7.24,99.48a1.93,1.93,0,0,1,0,.24,14.44,14.44,0,0,1-.09,1.63l-.06.38c0,.16-.06.32-.1.48a3.92,3.92,0,0,1-.28.77,2.75,2.75,0,0,1-.76,1,1.57,1.57,0,0,1-.3.2,2.25,2.25,0,0,1-.38.19l-.38.12-.1,0-.07,0-.32.05h-.14a5,5,0,0,1-.56,0,4.12,4.12,0,0,1-.62,0,2.76,2.76,0,0,1-.43-.07l-.09,0-.09,0a.16.16,0,0,1-.09,0h0a.07.07,0,0,1-.06,0,.55.55,0,0,1-.18-.06.28.28,0,0,1-.12,0,1.82,1.82,0,0,1-.28-.13.05.05,0,0,1,0,0l-.16-.1,0,0a.7.7,0,0,1-.17-.13,1.69,1.69,0,0,1-.32-.28l-.09-.1-.14-.18-.1-.14a3.26,3.26,0,0,1-.31-.62,2.53,2.53,0,0,1-.12-.36c0-.14-.08-.29-.11-.44s-.06-.3-.08-.46a7.59,7.59,0,0,1-.09-1c0-.43,0-.86,0-1.29V151.81c0-7.77.08-15.53,0-23.29,0-2.88.52-4.4,3.9-4.32a4.8,4.8,0,0,1,.55,0l.49.07a2.84,2.84,0,0,1,.44.1,1.31,1.31,0,0,1,.28.09l.16.07h0a1.46,1.46,0,0,1,.25.13,1.15,1.15,0,0,1,.28.19,1.26,1.26,0,0,1,.24.22.52.52,0,0,1,.1.11s0,0,0,0a2.2,2.2,0,0,1,.17.25,1.62,1.62,0,0,1,.1.18.77.77,0,0,1,.08.19,1.34,1.34,0,0,1,.07.18l.06.21.09.44.06.61c0,.16,0,.33,0,.51s0,.37,0,.56q0,12.09,0,24.19T84.08,176.74Zm7.6-70.84c0,.21,0,.41-.07.61s-.07.43-.11.64,0,.27-.08.4a2.22,2.22,0,0,1-.09.37A9.48,9.48,0,0,1,91,109a5.38,5.38,0,0,1-.2.51c-.14.34-.29.66-.46,1a10.47,10.47,0,0,1-.55.91c-.2.3-.41.58-.63.85a8.63,8.63,0,0,1-.71.77,11.15,11.15,0,0,1-8.22,3.11h0c-.36,0-.72,0-1.07-.07s-.66-.09-1-.16l-.47-.1-.47-.13c-.22-.06-.43-.13-.64-.21a9.7,9.7,0,0,1-1.81-.86l-.41-.26c-.19-.12-.37-.25-.55-.38a10.1,10.1,0,0,1-1-.86c-.16-.15-.31-.31-.46-.48a5.58,5.58,0,0,1-.39-.46l-.37-.48a9.22,9.22,0,0,1-.89-1.48,3.12,3.12,0,0,1-.23-.49,5.7,5.7,0,0,1-.29-.72,4.56,4.56,0,0,1-.18-.52,11.49,11.49,0,0,1-.43-2q-.06-.42-.09-.84s0,0,0-.05a2.79,2.79,0,0,1,0-.5,5.77,5.77,0,0,1,0-.72c0-.33,0-.66.07-1,0-.1,0-.21,0-.31a10.77,10.77,0,0,1,.23-1.13c0-.13.06-.26.1-.38a11.09,11.09,0,0,1,.88-2.17L71,99c.09-.15.18-.31.29-.46l.32-.48q.16-.24.36-.48c.15-.19.31-.38.47-.56s.4-.44.62-.65l.41-.37c.19-.17.39-.33.59-.48a3.11,3.11,0,0,1,.43-.31c.18-.13.37-.25.56-.37s.43-.25.66-.37.45-.23.68-.33L76.7,94l.18-.07c.14-.06.28-.1.42-.15a7,7,0,0,1,1-.28,4.94,4.94,0,0,1,.53-.1,6.26,6.26,0,0,1,1.06-.12h.61a8,8,0,0,1,1.09.08c.22,0,.45.06.67.11s.44.09.66.15l.43.13a2.67,2.67,0,0,1,.4.13,3.25,3.25,0,0,1,.4.15l.38.16c.18.08.37.16.55.26s.51.27.75.42a10.62,10.62,0,0,1,1.65,1.19c.29.25.56.5.82.77A11.44,11.44,0,0,1,91.73,105C91.72,105.32,91.7,105.62,91.68,105.9Z" fill="#8398b5"/><path d="M138.92,141.58c-4.75-5.56-4.77-11.37-4.68-17.72.08-6.19,0-12.37,0-18.56,0-9.19.14-18.38-.05-27.55A12.18,12.18,0,0,0,123,65.83c-5.36-.32-10.43,3.94-11.59,10a42.31,42.31,0,0,0-.76,7.7q-.09,23.66,0,47.32c0,3.06-.4,5.65-2.58,8.22-6.29,7.37-6.68,16.56-.61,24.12,2.67,3.32,3.29,6.54,3.22,10.41a30.3,30.3,0,0,0,.61,6.51c1.28,6.56,5.95,10.45,12,10.16,6.25-.3,10.58-5,11-11.93a36.46,36.46,0,0,0,0-4.79,12.69,12.69,0,0,1,3.39-10.29C142.83,157.35,143.9,147.41,138.92,141.58Zm-20.1-49.75q0-6,0-12.08c0-2.83.7-5.54,4-5.54a3.79,3.79,0,0,1,.49,0,.64.64,0,0,1,.2,0h0a1.07,1.07,0,0,1,.32.07,1.57,1.57,0,0,1,.43.15,1.83,1.83,0,0,1,.34.18.18.18,0,0,1,.07,0,1.84,1.84,0,0,1,.22.17L125,75a1.59,1.59,0,0,1,.28.36s0,0,0,0a1.94,1.94,0,0,1,.22.4,1.67,1.67,0,0,1,.08.2,1.55,1.55,0,0,1,.08.23,4.52,4.52,0,0,1,.15.68,2.57,2.57,0,0,1,.06.4c0,.14,0,.29,0,.43s0,.29,0,.44c0,.45,0,.9,0,1.34v48.3c0,2.21.3,4.49-3.08,4.54a6,6,0,0,1-2-.26,2.35,2.35,0,0,1-.37-.14l-.27-.15a2.2,2.2,0,0,1-.25-.17l-.17-.14a2.27,2.27,0,0,1-.52-.66,1.14,1.14,0,0,1-.1-.19,3,3,0,0,1-.15-.36,3.62,3.62,0,0,1-.16-.61c0-.1,0-.2,0-.3s0-.27,0-.42a8.79,8.79,0,0,1,0-.92C118.84,116,118.83,103.91,118.82,91.83Zm8,82.46c0,.13,0,.26,0,.4,0,.39-.07.78-.11,1.18l-.09,1.19c0,.4-.08.79-.15,1.17a5.18,5.18,0,0,1-.82,2.13.83.83,0,0,1-.12.16l-.13.16a2.77,2.77,0,0,1-.4.36,3.26,3.26,0,0,1-.48.3l-.27.12a3.36,3.36,0,0,1-.61.21h0a4.59,4.59,0,0,1-.7.13l-.27,0-.14,0a4.1,4.1,0,0,1-.87,0,2.21,2.21,0,0,1-.46-.08,2.45,2.45,0,0,1-.41-.12,2.49,2.49,0,0,1-.4-.2,1.51,1.51,0,0,1-.26-.18,1.75,1.75,0,0,1-.29-.26,1.56,1.56,0,0,1-.23-.28,1.9,1.9,0,0,1-.23-.39c-.06-.12-.11-.24-.16-.37l-.12-.35h0a2.17,2.17,0,0,1-.08-.3s0-.07,0-.11,0-.27-.07-.41a7.59,7.59,0,0,1-.09-1c0-.46,0-.93,0-1.38,0-.94-.09-2,0-2.91l0-.31a1,1,0,0,1,0-.3,2.34,2.34,0,0,1,.09-.38.83.83,0,0,1,.08-.22.72.72,0,0,1,.09-.2,1.82,1.82,0,0,1,.46-.61l.11-.09a1.41,1.41,0,0,1,.29-.18,1.66,1.66,0,0,1,.33-.15.94.94,0,0,1,.22-.07l.36-.08.27,0a6.84,6.84,0,0,1,1.42,0l.54-.06a6.85,6.85,0,0,1,1.11,0l.25,0a2.62,2.62,0,0,1,1.64.8.53.53,0,0,1,.12.14,1.52,1.52,0,0,1,.22.34,2,2,0,0,1,.1.21,2.23,2.23,0,0,1,.13.39,2.33,2.33,0,0,1,.08.36c0,.13,0,.25,0,.39S126.83,174,126.82,174.29ZM133.49,155a10.79,10.79,0,0,1-.63,1.48c-.13.24-.26.47-.4.7s-.29.45-.45.67-.31.42-.48.62l-.18.22c-.18.2-.36.4-.55.59a11,11,0,0,1-1.61,1.35,5.07,5.07,0,0,1-.54.36l-.18.11c-.23.14-.47.27-.71.39s-.49.24-.74.35a8.84,8.84,0,0,1-1,.37,9.73,9.73,0,0,1-1.06.28l-.54.1a11.52,11.52,0,0,1-1.67.13c-.37,0-.73,0-1.09,0l-.49-.06-.36-.05h0c-.19,0-.39-.07-.58-.12a5.47,5.47,0,0,1-.58-.15,5.58,5.58,0,0,1-.58-.18h0l-.57-.22-.39-.17a3.62,3.62,0,0,1-.4-.19l-.35-.17-.14-.08-.57-.35c-.22-.15-.45-.3-.67-.47s-.57-.45-.84-.69-.55-.53-.81-.82-.42-.5-.61-.76a10.91,10.91,0,0,1-1.28-2.2c-.08-.17-.14-.33-.21-.51s-.14-.37-.2-.56-.12-.37-.17-.57a2.29,2.29,0,0,1-.07-.28,1.27,1.27,0,0,1-.06-.28,6.18,6.18,0,0,1-.12-.62,2.34,2.34,0,0,1,0-.26c0-.11,0-.23,0-.35a1.82,1.82,0,0,1,0-.32c0-.15,0-.3,0-.45s0-.33,0-.5a10.66,10.66,0,0,1,.21-2.12c0-.13.05-.27.09-.39s.09-.36.13-.54a9.27,9.27,0,0,1,.36-1.05c0-.11.08-.21.13-.32a11.06,11.06,0,0,1,1.06-1.94,10.62,10.62,0,0,1,.66-.88c.17-.21.35-.41.54-.61a10.26,10.26,0,0,1,1.3-1.17l.47-.35a1.88,1.88,0,0,1,.23-.16l.34-.22a3.38,3.38,0,0,1,.41-.24c.17-.1.35-.19.52-.27a5.12,5.12,0,0,1,.53-.25,4.55,4.55,0,0,1,.51-.21,6.51,6.51,0,0,1,.71-.23l.54-.15c.22-.06.43-.1.65-.14s.44-.08.66-.1a1.84,1.84,0,0,1,.33,0s0,0,0,0a8.77,8.77,0,0,1,1-.05l.42,0h.15a8.28,8.28,0,0,1,1,.13,9.91,9.91,0,0,1,1.48.42l.18.07.39.16.5.23a10.33,10.33,0,0,1,1,.54,11.54,11.54,0,0,1,1.24.87l.39.32a11,11,0,0,1,1,.94l.13.14a12.71,12.71,0,0,1,1.7,2.24l.32.55c.09.17.18.34.26.51a10.89,10.89,0,0,1,.87,2.41,9.91,9.91,0,0,1,.24,2.36c0,.37,0,.74-.08,1.1A11.28,11.28,0,0,1,133.49,155Z" fill="#8398b5"/><path d="M181,95.11c-4.25-5.62-5.14-11.2-4.89-17.68a10.33,10.33,0,0,0-5.62-9.85c-8-4.39-17,.48-17.08,9.61-.09,6.67-.78,12.49-5.15,18.29-5.22,6.91-3.75,15,1.56,21.58a14.61,14.61,0,0,1,3.53,10.29c-.19,8.18-.05,16.36-.05,24.53,0,8.39,0,16.76,0,25.13,0,8.1,4.45,13.21,11.34,13.26s11.51-5,11.52-13c0-16.36.13-32.72-.06-49.06a16.62,16.62,0,0,1,3.75-11.49C185.29,109.92,186.12,101.91,181,95.11Zm-20.3-14.37c0-.42,0-.85.05-1.28,0-.21,0-.42,0-.64l0-.35c0-.19,0-.37.07-.56a4.51,4.51,0,0,1,.09-.53h0c0-.17.08-.34.13-.51s.1-.33.16-.49a3.82,3.82,0,0,1,.21-.46,4.1,4.1,0,0,1,.26-.41,2.76,2.76,0,0,1,.31-.37,2.92,2.92,0,0,1,1-.67,2.74,2.74,0,0,1,.53-.15,5.82,5.82,0,0,1,.62-.08,4.8,4.8,0,0,1,.66,0l.37,0a1.26,1.26,0,0,1,.33,0l.22,0,.09,0a3,3,0,0,1,.55.19,2.42,2.42,0,0,1,.39.21,2.59,2.59,0,0,1,.48.38,1,1,0,0,1,.17.18l.09.11.11.15.1.15a3.75,3.75,0,0,1,.24.44c.07.16.13.32.19.49a19.57,19.57,0,0,1,.52,4.52,10.74,10.74,0,0,1,0,1.12,2,2,0,0,1,0,.35,2.79,2.79,0,0,1-.06.43,1.33,1.33,0,0,1-.06.3,2.45,2.45,0,0,1-.08.29,2.67,2.67,0,0,1-.28.62,1.59,1.59,0,0,1-.18.27,1.27,1.27,0,0,1-.21.25,1.07,1.07,0,0,1-.19.18,2.07,2.07,0,0,1-.37.27,1,1,0,0,1-.17.1,4.54,4.54,0,0,1-1.57.47l-.34,0a2.73,2.73,0,0,1-.41,0h-.44a7.38,7.38,0,0,1-1.2-.07l-.11,0-.3-.07a.42.42,0,0,1-.15,0,1.31,1.31,0,0,1-.28-.09,2,2,0,0,1-.44-.21.71.71,0,0,1-.18-.12,2.24,2.24,0,0,1-.83-1.18l-.06-.21A12.58,12.58,0,0,1,160.69,80.74Zm8,95.36c0,.18,0,.35,0,.53,0,.35,0,.71-.05,1.06a6.6,6.6,0,0,1-.81,2.9,2.08,2.08,0,0,1-.24.34,1.93,1.93,0,0,1-.31.33,1.54,1.54,0,0,1-.31.25,2.33,2.33,0,0,1-.41.24l-.17.07a1.33,1.33,0,0,1-.28.1.2.2,0,0,1-.11,0l-.09,0h0a2.26,2.26,0,0,1-.39.07,3.86,3.86,0,0,1-.6,0h-.33a3.79,3.79,0,0,1-.6-.07l-.09,0a3.11,3.11,0,0,1-.92-.3.56.56,0,0,1-.17-.09l0,0a1.2,1.2,0,0,1-.21-.13,2.62,2.62,0,0,1-.64-.6,1.63,1.63,0,0,1-.17-.22h0a.58.58,0,0,1-.11-.18,1,1,0,0,1-.14-.24c-.07-.13-.13-.27-.19-.41a3.66,3.66,0,0,1-.15-.43,8.39,8.39,0,0,1-.29-1.46,20.13,20.13,0,0,1-.1-2.2q0-11.94,0-23.88c0-7.77.08-15.53,0-23.29a10.2,10.2,0,0,1,.08-1.62c0-.13,0-.25.07-.37a1.63,1.63,0,0,1,.07-.3.93.93,0,0,1,0-.13,2.73,2.73,0,0,1,.48-.91,1.36,1.36,0,0,1,.24-.24.65.65,0,0,1,.16-.13.94.94,0,0,1,.18-.12.51.51,0,0,1,.16-.09.8.8,0,0,1,.16-.08,1.61,1.61,0,0,1,.33-.12l0,0,.27-.07a5.19,5.19,0,0,1,.95-.13c.21,0,.44,0,.68,0a7.64,7.64,0,0,1,1.94.23,3.08,3.08,0,0,1,.72.28,2.28,2.28,0,0,1,.56.4,2.78,2.78,0,0,1,.71,1.26,2.58,2.58,0,0,1,.1.42c0,.11,0,.23.05.35s0,.25,0,.38,0,.27,0,.41,0,.29,0,.44C168.65,144.26,168.73,160.18,168.69,176.1ZM176,105.9v0c0,.28-.07.56-.12.83a10.19,10.19,0,0,1-.4,1.56,2,2,0,0,1-.12.34c0,.1-.07.19-.11.29a3.43,3.43,0,0,1-.19.44,3.68,3.68,0,0,1-.21.45,10,10,0,0,1-.7,1.19c-.14.22-.3.44-.46.65a7.43,7.43,0,0,1-.52.62,5.79,5.79,0,0,1-.48.51,9.39,9.39,0,0,1-1.12,1l-.33.25q-.37.27-.78.51t-1,.51c-.33.15-.66.29-1,.41a3.57,3.57,0,0,1-.46.16,7.66,7.66,0,0,1-1,.25l-.42.08a1.35,1.35,0,0,1-.29,0,3.45,3.45,0,0,1-.55.07l-.41,0h-.27a6.91,6.91,0,0,1-.79,0,10.17,10.17,0,0,1-1.47-.14l-.48-.09a11.34,11.34,0,0,1-1.83-.54c-.34-.14-.66-.29-1-.45a11.07,11.07,0,0,1-1.81-1.15q-.42-.33-.81-.69a10.56,10.56,0,0,1-1.4-1.59c-.12-.16-.23-.33-.34-.49a10.42,10.42,0,0,1-1.11-2.18,3.52,3.52,0,0,1-.15-.42,9.71,9.71,0,0,1-.35-1.28,10.52,10.52,0,0,1-.22-2.76,9.64,9.64,0,0,1,.12-1.08c.05-.29.11-.58.18-.86a6.05,6.05,0,0,1,.2-.73c.08-.26.17-.51.27-.76s.21-.51.32-.75.33-.65.51-1a12.22,12.22,0,0,1,1.44-2c.17-.2.36-.39.55-.58s.13-.13.19-.19a10.73,10.73,0,0,1,1-.88,10.45,10.45,0,0,1,.87-.61c.15-.09.3-.19.45-.27a9.1,9.1,0,0,1,.93-.48,7.89,7.89,0,0,1,1.19-.46,2.64,2.64,0,0,1,.4-.12h.05a2.14,2.14,0,0,1,.32-.08,6.17,6.17,0,0,1,.82-.15,1,1,0,0,1,.24,0,8.45,8.45,0,0,1,1.23-.06,9.69,9.69,0,0,1,1.61.19,11.26,11.26,0,0,1,2.09.66,11.42,11.42,0,0,1,1.73.91c.2.12.39.25.58.39s.39.28.57.43a8.32,8.32,0,0,1,.71.6l.56.53s0,0,.05,0c.17.17.34.35.5.54a3.47,3.47,0,0,1,.25.29c.2.24.39.49.57.74a10.9,10.9,0,0,1,1,1.63,2.53,2.53,0,0,1,.18.37,5.41,5.41,0,0,1,.27.61,3.75,3.75,0,0,1,.16.43,3.09,3.09,0,0,1,.14.43,6.5,6.5,0,0,1,.22.84c0,.21.08.41.11.62l0,.26a8.45,8.45,0,0,1,.06,1.23C176.09,105.34,176.07,105.62,176,105.9Z" fill="#8398b4"/><path d="M80.62,124.2c-3.38-.08-4,1.44-3.9,4.32.12,7.76,0,15.52,0,23.29q0,12.24,0,24.48c0,2.76.2,5.52,3.78,5.55,3.28,0,3.54-2.55,3.54-5.1q0-24.18,0-48.37C84.1,125.87,83.78,124.28,80.62,124.2Z" fill="#fff"/><path d="M80.52,93.31c-5.81,0-10.92,5.07-11.07,11.07C69.28,111,73.89,116,80.23,116.12c6.54.13,11.33-4.5,11.5-11.1C91.89,99,86.45,93.35,80.52,93.31Z" fill="#fefefe"/><path d="M80.15,85.91c4.42.1,4-2.62,3.93-5.43s.55-6.17-3.4-6.31c-4.36-.15-4,3.5-3.91,6.43C76.8,83,75.86,85.8,80.15,85.91Z" fill="#f8f8fa"/><path d="M122.92,132.38c3.38,0,3.08-2.33,3.08-4.54V104q0-12.22,0-24.45c0-2.46,0-5.32-3.22-5.33s-4,2.71-4,5.54c0,16.1,0,32.21,0,48.31C118.76,131.07,119.82,132.42,122.92,132.38Z" fill="#fbfbfc"/><path d="M122.83,139.88a11.51,11.51,0,0,0-11.44,11.42,11.31,11.31,0,0,0,11.34,11.43,11.51,11.51,0,0,0,11.35-10.93C134.22,146,128.5,139.92,122.83,139.88Z" fill="#fefefe"/><path d="M122.58,170.88c-4.72-.5-3.7,2.91-3.78,5.5s.13,5.66,3.69,5.45c4.4-.25,4-4.09,4.29-7.13C127.15,171.48,125.45,170.47,122.58,170.88Z" fill="#f3f4f7"/><path d="M164.6,124.18c-3.33,0-4,1.46-3.92,4.35.12,7.76,0,15.52,0,23.29q0,11.94,0,23.88c0,2.91.28,6.18,3.83,6.38,3.72.21,4.13-3.09,4.14-6,0-15.92,0-31.84.06-47.76C168.77,125.24,167.7,124.21,164.6,124.18Z" fill="#f7f7f9"/><path d="M164.72,93.3c-5.58-.16-11,5.12-11.29,11a11.34,11.34,0,1,0,22.67.71C176.27,99.36,170.57,93.47,164.72,93.3Z" fill="#fefefe"/><path d="M164.37,85.94c3.51,0,4.59-1.59,4.37-4.74-.2-3,.09-6.77-3.84-7s-4.12,3.46-4.21,6.51C160.65,83.37,160.21,86,164.37,85.94Z" fill="#f0f1f4"/><path d="M255.21,123.12,227.74,40.77a15.42,15.42,0,0,0-14.63-10.54H15.43A15.45,15.45,0,0,0,.83,40.67a15.21,15.21,0,0,0-.83,5V210.34a15.23,15.23,0,0,0,.83,5,15.45,15.45,0,0,0,14.6,10.44H213.11a15.42,15.42,0,0,0,14.63-10.54l27.47-82.35A15.51,15.51,0,0,0,255.21,123.12Zm-5.94,7.78L221.8,213.24a9.16,9.16,0,0,1-8.69,6.26H15.43a9.17,9.17,0,0,1-9.16-9.16V45.65a9.16,9.16,0,0,1,9.16-9.15H213.11a9.14,9.14,0,0,1,8.69,6.25l27.47,82.35A9.14,9.14,0,0,1,249.27,130.9Z" fill="#8398b4"/></g></svg>