<svg xmlns="http://www.w3.org/2000/svg" width="256" height="246" viewBox="0 0 256 246"><title>icon20</title><g id="Layer_5" data-name="Layer 5"><path d="M255.21,132.88l-27.47,82.35a15.42,15.42,0,0,1-14.63,10.54H15.43A15.44,15.44,0,0,1,0,210.35V45.66A15.45,15.45,0,0,1,15.43,30.23H213.11a15.42,15.42,0,0,1,14.63,10.54l27.47,82.35A15.51,15.51,0,0,1,255.21,132.88Z" fill="#fff"/></g><g id="Layer_3" data-name="Layer 3"><path d="M229.67,132.54l-21.92,65.7a12.29,12.29,0,0,1-11.67,8.41h-170V63A12.32,12.32,0,0,1,38.36,50.64H196.08a12.29,12.29,0,0,1,11.67,8.41l21.92,65.7A12.36,12.36,0,0,1,229.67,132.54Z" fill="#fff"/><path d="M65.87,137.71a6.24,6.24,0,1,0,6.31,6.2A6.2,6.2,0,0,0,65.87,137.71Z" fill="none"/><path d="M68.14,106.42a2.69,2.69,0,0,1-4.36.15c-1.2-1.21-2.45-2.39-3.77-3.66-.75,2,.39,4.82,2.34,6.11a6.27,6.27,0,0,0,7.85-.53c1.58-1.46,2.63-4.3,1.51-6.31C70.51,103.62,69.32,105,68.14,106.42Z" fill="none"/><path d="M146.53,151.9l-.07-.06.07.12Z" fill="none"/><path d="M72.18,124a6.29,6.29,0,0,0-6.25-6.29,6.27,6.27,0,0,0,0,12.53A6.27,6.27,0,0,0,72.18,124Z" fill="none"/><path d="M112.41,167l.18.1v-.06Z" fill="none"/><path d="M133.59,153.89a1.73,1.73,0,0,0,.26,1.45l1.56,2.19.26-.11-2-3.63Z" fill="none"/><path d="M134.52,152.77a1.59,1.59,0,0,0-.41.26l.77-.43Z" fill="none"/><path d="M68.4,98.34a4.87,4.87,0,0,0-5.28.19l2.61,3Z" fill="none"/><path d="M142.85,76.22a10.4,10.4,0,0,0-6.92-2.33q-18.32,0-36.63,0-21.12,0-42.28,0a10.23,10.23,0,0,0-8.25,3.71,10.38,10.38,0,0,0-2.32,6.82c0,8,0,16,0,24v54.85a11.07,11.07,0,0,0,1,5A10.06,10.06,0,0,0,57.09,174h45a68.89,68.89,0,0,1,.66-12.56,2.54,2.54,0,0,1,2.92-2.22,78,78,0,0,0,8.79,1.12h0l0-.07.38.1.75,0a49.3,49.3,0,0,0,15.58-1.48c.61-.17,1.23-.35,1.83-.55l-1-1.48a4.4,4.4,0,0,1-.65-3.65,4,4,0,0,1,2.32-2.79l7.43-3.37a3.84,3.84,0,0,1,3.91.47l1.59,1.22V134.44q0-25,0-50A10.22,10.22,0,0,0,142.85,76.22Zm-59,25.8a4.64,4.64,0,0,1,3.79-3,8.68,8.68,0,0,1,1.53-.09q19.8,0,39.59,0h.36l.34,0a1.87,1.87,0,0,1,.34,0l.47.07h.07a2.09,2.09,0,0,1,.36.08l.48.13a4,4,0,0,1,.79.34l.39.23a1.54,1.54,0,0,1,.3.22,1.64,1.64,0,0,1,.25.21,1.81,1.81,0,0,1,.24.24.93.93,0,0,1,.16.18,3.75,3.75,0,0,1,.36.5l.08.13a.64.64,0,0,1,.08.14,2.59,2.59,0,0,1,.14.29c.05.1.09.2.13.3s.09.28.14.42a5,5,0,0,1,.11,2.48,4.46,4.46,0,0,1-.29.92,2.92,2.92,0,0,1-.17.36,1.13,1.13,0,0,1-.12.21,4.79,4.79,0,0,1-1.33,1.47l-.15.1a2.85,2.85,0,0,1-.37.23.8.8,0,0,1-.16.08l-.34.16-.08,0a2.53,2.53,0,0,1-.36.12,3.5,3.5,0,0,1-.64.15,9.85,9.85,0,0,1-1.63.1c-2.19,0-4.38,0-6.57,0H89.06l-.69,0-.58-.07a1.91,1.91,0,0,1-.33-.06l-.3-.07a4.49,4.49,0,0,1-1.35-.58,1,1,0,0,1-.25-.17l-.15-.11-.33-.28a5.11,5.11,0,0,1-.45-.48A4.82,4.82,0,0,1,83.88,102Zm-18,50.63A8.71,8.71,0,1,1,74.66,144,8.73,8.73,0,0,1,65.9,152.65Zm-8.66-28.82a8.71,8.71,0,1,1,8.6,8.8A8.64,8.64,0,0,1,57.24,123.83Zm23.8-33c-.85,1.27-1.85,2.42-2.83,3.61-1.38,1.67-2.79,3.31-4.15,5a1.15,1.15,0,0,0-.16,1,8.69,8.69,0,1,1-16.37,1.52,1.75,1.75,0,0,0-.59-2,2.48,2.48,0,1,1,3.27-3.72c.32.27.57.67,1.13.33a8.68,8.68,0,0,1,8.81-.27q2.73-3.27,5.47-6.53a21,21,0,0,1,1.8-2,2.24,2.24,0,0,1,3.12,0A2.31,2.31,0,0,1,81,90.79Zm2.47,32.7a3,3,0,0,1,.06-.4,2.88,2.88,0,0,1,.09-.4,2.91,2.91,0,0,1,.12-.39,2.74,2.74,0,0,1,.15-.4,3.73,3.73,0,0,1,.26-.53,3.11,3.11,0,0,1,.34-.52.9.9,0,0,1,.15-.19,3.05,3.05,0,0,1,.47-.48,3,3,0,0,1,.39-.32l0,0a3.24,3.24,0,0,1,.47-.28,1.51,1.51,0,0,1,.29-.13,1.92,1.92,0,0,1,.33-.14l.16,0a3.36,3.36,0,0,1,.48-.14l.14,0c.21,0,.42-.08.64-.1a6.18,6.18,0,0,1,.86,0q20,0,40.07,0l.54,0a5.36,5.36,0,0,1,.7.09,2,2,0,0,1,.35.07,3.26,3.26,0,0,1,.63.18,3.38,3.38,0,0,1,.44.18,4.59,4.59,0,0,1,1,.57,4,4,0,0,1,.57.52,3.49,3.49,0,0,1,.37.47,2.11,2.11,0,0,1,.21.31,2.31,2.31,0,0,1,.18.35,4.87,4.87,0,0,1,.24.57,5,5,0,0,1,.27,2.07,1.33,1.33,0,0,1,0,.28,1.67,1.67,0,0,1-.05.31,2.58,2.58,0,0,1-.1.42c0,.13-.08.25-.13.37a2.87,2.87,0,0,1-.18.4,1.19,1.19,0,0,1-.13.25,2.53,2.53,0,0,1-.13.22,2.26,2.26,0,0,1-.23.31,1.79,1.79,0,0,1-.25.31,1.54,1.54,0,0,1-.17.19,4.19,4.19,0,0,1-.56.48l-.29.2a2.16,2.16,0,0,1-.3.18,2.58,2.58,0,0,1-.44.22,4.84,4.84,0,0,1-.84.27l-.21,0-.45.07a4.93,4.93,0,0,1-.54,0H127c-2.06,0-4.12,0-6.18,0H88.91l-.67,0-.31,0-.25,0a4.78,4.78,0,0,1-.57-.12,5.29,5.29,0,0,1-.6-.21,4.59,4.59,0,0,1-.5-.24,4.21,4.21,0,0,1-.52-.34,3.22,3.22,0,0,1-.45-.39h0a4.9,4.9,0,0,1-.43-.47A4.76,4.76,0,0,1,83.48,124,3.87,3.87,0,0,1,83.51,123.49Zm51,20.84a1.09,1.09,0,0,1,0,.26,5.11,5.11,0,0,1-.2.88c0,.1-.07.2-.11.3a3.51,3.51,0,0,1-.22.48,6,6,0,0,1-.37.6,5.26,5.26,0,0,1-.58.67,5.35,5.35,0,0,1-.75.58,3.81,3.81,0,0,1-.52.29,2.59,2.59,0,0,1-.38.17,3.33,3.33,0,0,1-.51.16,1.65,1.65,0,0,1-.32.07c-.11,0-.23,0-.35.06a13.06,13.06,0,0,1-1.53.07H89.11c-.27,0-.53,0-.79,0a3,3,0,0,1-.51-.06,3.61,3.61,0,0,1-.67-.13l-.11,0a1.26,1.26,0,0,1-.33-.1,2.75,2.75,0,0,1-.36-.15,3,3,0,0,1-.36-.18,4.37,4.37,0,0,1-1.18-1,4.8,4.8,0,0,1-.91-5.26,2.75,2.75,0,0,1,.23-.49.05.05,0,0,1,0,0,1.71,1.71,0,0,1,.13-.23,1.78,1.78,0,0,1,.17-.27l0,0a3.42,3.42,0,0,1,.52-.62.17.17,0,0,1,.06-.06,3.73,3.73,0,0,1,.43-.36,4.53,4.53,0,0,1,.55-.34,3.73,3.73,0,0,1,.61-.26,4.11,4.11,0,0,1,.65-.19A5.52,5.52,0,0,1,88,139a11.07,11.07,0,0,1,1.15-.06h39.78l.61,0a6.48,6.48,0,0,1,1.72.34l.12,0a2.17,2.17,0,0,1,.35.15,4.34,4.34,0,0,1,.93.56c.13.1.25.21.37.32a3.59,3.59,0,0,1,.32.35.76.76,0,0,1,.18.23l.07.1a3.07,3.07,0,0,1,.38.66,1.78,1.78,0,0,1,.17.4,2.86,2.86,0,0,1,.15.41,4.37,4.37,0,0,1,.15.7A5.08,5.08,0,0,1,134.48,144.33Z" fill="none"/><path d="M199.93,192.35a3.87,3.87,0,0,0,.62-.43l-.59,0Z" fill="none"/><path d="M249.27,125.1,221.8,42.76a9.17,9.17,0,0,0-8.69-6.26H15.43a9.17,9.17,0,0,0-9.16,9.16V210.35a9.16,9.16,0,0,0,9.16,9.15H213.11a9.11,9.11,0,0,0,8.67-6.25l27.49-82.35A9.14,9.14,0,0,0,249.27,125.1Zm-44.86,67-.4,0h0a7,7,0,0,1-.4,1.29c-.49,1.18-1.77,2.21-3.88,3h0c-4.87,1.89-14.26,2.69-29.37,1.92L107,195.14a4.46,4.46,0,0,1-3.17-1.62,4.74,4.74,0,0,1-1.07-3.37l.31-6.21H56.56a20,20,0,0,1-19.5-15.34c-.2-.82-.4-1.66-.6-2.49V81.73c.1-.36.24-.71.31-1.08,1.72-8.46,6.71-13.86,15-16.15.83-.23,1.66-.4,2.49-.6h84.37c.49.12,1,.27,1.47.36a19.22,19.22,0,0,1,9,4.17,20.08,20.08,0,0,1,7.36,16.06v68a4.84,4.84,0,0,1,1.93,1.7,5.13,5.13,0,0,1,.78,2.47l.82.5c.25.16.49.31.74.44a2.71,2.71,0,0,1,.25.17l.28-.19a4.29,4.29,0,0,1,2.59-.78l2-2,5,4.83-1.49,1.54-.74.77.34.16.85.44.22.1.41-.29a4.24,4.24,0,0,1,1.89-.74l1.51-1.56.5-.51,5,4.83L177.71,166h0a1,1,0,0,1,.21.09s1,.35,2,.75a3.77,3.77,0,0,1,2.88-.38l1.93-2h0l5,4.83-.6.62c1.83.54,3.74,1.08,5.77,1.59a28.12,28.12,0,0,1,6.81,2.61,6,6,0,0,1,2.85,6.14.13.13,0,0,1,0,.1,13.22,13.22,0,0,1,.14,2.39l3.3.17-.34,6.74-3.12-.16Z" fill="none"/><path d="M255.21,123.12,227.74,40.77a15.42,15.42,0,0,0-14.63-10.54H15.43A15.45,15.45,0,0,0,0,45.66V210.35a15.44,15.44,0,0,0,15.43,15.42H213.11a15.42,15.42,0,0,0,14.63-10.54l27.47-82.35A15.51,15.51,0,0,0,255.21,123.12Zm-5.94,7.78-27.49,82.35a9.11,9.11,0,0,1-8.67,6.25H15.43a9.16,9.16,0,0,1-9.16-9.15V45.66a9.17,9.17,0,0,1,9.16-9.16H213.11a9.17,9.17,0,0,1,8.69,6.26l27.47,82.34A9.14,9.14,0,0,1,249.27,130.9Z" fill="#8398b4"/><path d="M88.91,128.92h31.93c2.87,0,5.75.05,8.62,0a5,5,0,0,0,4.76-6.64c-.72-2.1-2.61-3.33-5.19-3.33q-20,0-40.07,0a6.18,6.18,0,0,0-.86,0A5,5,0,0,0,84.6,127,5.15,5.15,0,0,0,88.91,128.92Z" fill="#8297b4"/><path d="M130.14,148.85a5,5,0,0,0,4.15-6.31c-.69-2.33-2.55-3.59-5.36-3.59H89.15A11.07,11.07,0,0,0,88,139a4.64,4.64,0,0,0-4.11,3,4.8,4.8,0,0,0,.91,5.26,5.34,5.34,0,0,0,4.32,1.66h39.49A13.06,13.06,0,0,0,130.14,148.85Z" fill="#8297b4"/><path d="M89.06,108.9q10,0,19.94,0h19.74a9.85,9.85,0,0,0,1.63-.1,4.92,4.92,0,0,0,3.91-6.31c-.72-2.34-2.58-3.55-5.49-3.55q-19.8,0-39.59,0a8.68,8.68,0,0,0-1.53.09,4.64,4.64,0,0,0-3.79,3,4.82,4.82,0,0,0,.75,5A5.28,5.28,0,0,0,89.06,108.9Z" fill="#8297b4"/><path d="M80.54,87.76a2.24,2.24,0,0,0-3.12,0,21,21,0,0,0-1.8,2Q72.88,93,70.15,96.26a8.68,8.68,0,0,0-8.81.27c-.56.34-.81-.06-1.13-.33a2.48,2.48,0,1,0-3.27,3.72,1.75,1.75,0,0,1,.59,2,8.53,8.53,0,0,0,4.25,9.64A8.68,8.68,0,0,0,73.9,100.38a1.15,1.15,0,0,1,.16-1c1.36-1.69,2.77-3.33,4.15-5,1-1.19,2-2.34,2.83-3.61A2.31,2.31,0,0,0,80.54,87.76ZM63.13,98.54l.11-.09.18-.15a1.74,1.74,0,0,1,.2-.13,3.13,3.13,0,0,1,.32-.15l.4-.14.31-.08.4-.08a5.31,5.31,0,0,1,1.82,0l.33.07a4,4,0,0,1,1.2.52l-1.32,1.58c-.43.53-.88,1.06-1.34,1.63h0c-.81-.93-1.55-1.8-2.29-2.64l-.32-.36Zm7.07,9.95a7.11,7.11,0,0,1-.94.72,6.31,6.31,0,0,1-1,.52q-.27.1-.54.18l-.34.09h-.07l-.26,0H67l-.39.05a6.51,6.51,0,0,1-4.22-1.1,2.83,2.83,0,0,1-.28-.2,4.69,4.69,0,0,1-.53-.47,5.6,5.6,0,0,1-.87-1.12,1.92,1.92,0,0,1-.18-.31,3,3,0,0,1-.18-.36,1.78,1.78,0,0,1-.12-.29,4.59,4.59,0,0,1-.17-.48,2.14,2.14,0,0,1-.09-.34,1.16,1.16,0,0,1,0-.18,3.31,3.31,0,0,1-.08-.55,3.55,3.55,0,0,1,0-.46,3.79,3.79,0,0,1,.23-1.35c1.32,1.27,2.57,2.45,3.77,3.66a3.1,3.1,0,0,0,2.16,1l.29,0a1.19,1.19,0,0,0,.26,0l.1,0h0a.52.52,0,0,0,.16-.06l.28-.13a1.61,1.61,0,0,0,.28-.17c.07,0,.14-.1.21-.15a2.89,2.89,0,0,0,.32-.29,3.45,3.45,0,0,0,.26-.28l.88-1c.46-.55.92-1.11,1.4-1.66l.12-.14q.57-.69,1.17-1.38a2.48,2.48,0,0,1,.2.44,3.39,3.39,0,0,1,.23,1A6.2,6.2,0,0,1,70.2,108.49Z" fill="#8297b4"/><path d="M66,115.23A8.7,8.7,0,1,0,74.65,124,8.64,8.64,0,0,0,66,115.23Zm0,15c-.21,0-.43,0-.64,0l-.22,0h0l-.36-.07a.67.67,0,0,1-.19-.05l-.08,0a1.83,1.83,0,0,1-.25-.06l-.07,0-.11,0h0a1.57,1.57,0,0,1-.23-.09l0,0a1.39,1.39,0,0,1-.28-.12l-.34-.17a3.5,3.5,0,0,1-.58-.36l-.21-.16h0a2.2,2.2,0,0,1-.34-.28,3.8,3.8,0,0,1-.37-.33,6.38,6.38,0,0,1-.78-.94,6,6,0,0,1-.59-1h0a4,4,0,0,1-.22-.57,4.27,4.27,0,0,1-.13-.48l0-.14,0-.14v0s0,0,0-.08a2,2,0,0,1,0-.26s0-.07,0-.11a.49.49,0,0,1,0-.12,2,2,0,0,1,0-.42v-.08a3,3,0,0,1,0-.42.11.11,0,0,1,0-.1s0,0,0,0v-.06a4.34,4.34,0,0,1,.09-.52.29.29,0,0,1,0-.09,5.12,5.12,0,0,1,.15-.56,4.68,4.68,0,0,1,.18-.48,1.89,1.89,0,0,1,.11-.25,1.06,1.06,0,0,1,.11-.21,2.19,2.19,0,0,1,.16-.3,6.19,6.19,0,0,1,.51-.75,2.09,2.09,0,0,1,.24-.28l.12-.13a2,2,0,0,1,.25-.25,4.59,4.59,0,0,1,.41-.36c.14-.11.28-.22.43-.32l.05,0a3.22,3.22,0,0,1,.39-.25,6.54,6.54,0,0,1,.59-.3,6,6,0,0,1,2.39-.52,3.94,3.94,0,0,1,.6,0h.09a4.34,4.34,0,0,1,.54.09h0a6.29,6.29,0,0,1,.62.17,5.06,5.06,0,0,1,1.1.47,0,0,0,0,1,0,0,4.23,4.23,0,0,1,.4.24,0,0,0,0,0,0,0,2,2,0,0,1,.25.18l0,0,0,0,.26.2h0c.13.12.26.23.39.36l.07.08,0,0a4.12,4.12,0,0,1,.28.31l.05.06a3.18,3.18,0,0,1,.27.37,1.77,1.77,0,0,1,.12.17,7.06,7.06,0,0,1,.52.95h0l0,.11a3.39,3.39,0,0,1,.15.41s0,.08,0,.12a4.05,4.05,0,0,1,.12.5s0,.06,0,.09,0,0,0,.08,0,.22.05.33a.28.28,0,0,1,0,.09,1.9,1.9,0,0,1,0,.25c0,.17,0,.33,0,.5A6.28,6.28,0,0,1,66,130.19Z" fill="#8297b4"/><path d="M66.05,135.24A8.71,8.71,0,1,0,74.66,144,8.67,8.67,0,0,0,66.05,135.24ZM72.18,144a5.12,5.12,0,0,1,0,.56.76.76,0,0,1,0,.15,4.71,4.71,0,0,1-.09.52,3.89,3.89,0,0,1-.12.49.65.65,0,0,1,0,.13c0,.17-.11.33-.17.49a5.6,5.6,0,0,1-.51,1,1.7,1.7,0,0,1-.15.22,5.47,5.47,0,0,1-.53.66,3.57,3.57,0,0,1-.27.28l-.32.29a6.83,6.83,0,0,1-1,.68,7.18,7.18,0,0,1-1.1.48,5.69,5.69,0,0,1-.59.16,5.77,5.77,0,0,1-.6.1h0a2.73,2.73,0,0,1-.41,0H66a6.24,6.24,0,1,1-.15-12.48,6.19,6.19,0,0,1,6.3,6.2Z" fill="#8297b4"/><path d="M204,192.1l.4,0,.13-2.62,3.13.16.34-6.74-3.3-.17A45.38,45.38,0,0,1,204,192.1Z" fill="#fff"/><path d="M167.54,159a5,5,0,0,1,.77,2.83l.29.15,2.24-2.31-5-4.83-2,2H164A4.56,4.56,0,0,1,167.54,159Z" fill="#fff"/><path d="M176.64,163.73a5.42,5.42,0,0,1,.75,2.15,2.52,2.52,0,0,0,.33.13l1.58-1.63-5-4.83-2,2.07a3.78,3.78,0,0,1,.75,0A4.6,4.6,0,0,1,176.64,163.73Z" fill="#fff"/><path d="M185.75,168.53c.07.12.15.26.22.4,1,.34,2.1.67,3.2,1l.6-.62-5-4.83-1.94,2A4.69,4.69,0,0,1,185.75,168.53Z" fill="#fff"/><path d="M199.73,196.42h0Z" fill="#fff"/><path d="M201.65,184.62a5.93,5.93,0,0,1-1.47.58,103.12,103.12,0,0,1-26.86,2.09l-67-3.38-.32,6.45a1.35,1.35,0,0,0,.27.92,1.33,1.33,0,0,0,.94.48L170.52,195c18.73.94,26.8-1.06,29.41-2.6l0-.46.59,0a1.9,1.9,0,0,0,.31-.35,5.36,5.36,0,0,0,.68-1.92c-2.89,1.73-7.71,2.49-11.82,2.85a75.45,75.45,0,0,1-7.64.25,1.28,1.28,0,0,1,.13-2.55c5.6.29,17.5-.79,19.35-3.79a.91.91,0,0,1,.2-.24c0-.48,0-.95-.09-1.39C201.66,184.73,201.66,184.68,201.65,184.62Z" fill="#fff"/><path d="M151.31,161.39l2.53-1.79,1.82-1.3a1.57,1.57,0,0,0,.63-1,1.91,1.91,0,0,0-.06-.95,2.87,2.87,0,0,0-.2-.39,1.71,1.71,0,0,0-1.31-.8,1.06,1.06,0,0,0-.43,0,1.17,1.17,0,0,0-.48.2l-3.23,2.3-1.11.8a1.59,1.59,0,0,0-.65,1.05,2,2,0,0,0,.27,1.33A1.61,1.61,0,0,0,151.31,161.39Z" fill="#fff"/><path d="M160.4,166.15l2.12-1.5,2.23-1.58a1.52,1.52,0,0,0,.63-1,.78.78,0,0,0,0-.4,2,2,0,0,0-.27-.94,1.71,1.71,0,0,0-1.32-.8,1.58,1.58,0,0,0-.9.26l-.07.07-3.64,2.56-.64.46a1.59,1.59,0,0,0-.63,1.07,1.9,1.9,0,0,0,.27,1.32A1.6,1.6,0,0,0,160.4,166.15Z" fill="#fff"/><path d="M169.5,170.92l2.3-1.64,2-1.44a1.73,1.73,0,0,0,.63-1.82,2.53,2.53,0,0,0-.25-.56,1.65,1.65,0,0,0-1.32-.82,1.6,1.6,0,0,0-.9.26l-3.79,2.71-.55.38a1.79,1.79,0,0,0-.37,2.39A1.6,1.6,0,0,0,169.5,170.92Z" fill="#fff"/><path d="M178.61,175.69l3.24-2.32,1.1-.77a1.59,1.59,0,0,0,.64-1,2,2,0,0,0-.27-1.34,1.64,1.64,0,0,0-1.32-.8,1.4,1.4,0,0,0-.89.25L178,171.89l-1.2.87a1.52,1.52,0,0,0-.66,1.06,1.81,1.81,0,0,0,.28,1.32A1.61,1.61,0,0,0,178.61,175.69Z" fill="#fff"/><path d="M114.41,160.3l.4,0-.38-.1Z" fill="#fff"/><path d="M144.07,174.43c-7.47-1.37-23.13-5.28-29.23-6.83l-2.24-.55v.06a164.72,164.72,0,0,0,22.08,10.17l9.25,2.48c3.15.47,5.82.33,7.52-.79,6.51-4.28,0-12.69,0-12.69C151.45,171.17,149.23,175.38,144.07,174.43Z" fill="#fff"/><path d="M146.46,151.84l-2.93-2.25a1.57,1.57,0,0,0-1.12-.3l-.12,0-.33.09-7.08,3.2-.77.43a1.79,1.79,0,0,0-.49.76l2,3.63c2.11-.82,3.92-1.71,5.56-2.5a32.85,32.85,0,0,1,5.19-2.18l.47-.13-.36-.65Z" fill="#fff"/><path d="M182.08,192.75a1.29,1.29,0,0,1-.44-.11,1.11,1.11,0,0,0,.45.12h0Zm-48-39.72h0l0,0Zm0,0h0Zm47.93,39.75a1.29,1.29,0,0,1-.44-.11,1.11,1.11,0,0,0,.45.12h0ZM134.15,153h0Zm0,0h0l0,0Zm47.53,39.61a1.11,1.11,0,0,0,.45.12h0A1.29,1.29,0,0,1,181.64,192.64ZM134.15,153h0a.08.08,0,0,0,0,0Zm0,0h0Zm0,0,0,0h0Zm70.6,29.71a13.22,13.22,0,0,0-.14-2.39.13.13,0,0,0,0-.1,6,6,0,0,0-2.85-6.14,28.12,28.12,0,0,0-6.81-2.61c-2-.51-3.94-1-5.77-1.59-1.1-.33-2.17-.65-3.2-1-.07-.14-.15-.28-.22-.4l-.28-.39c-.1-.12-.2-.24-.31-.35a3.34,3.34,0,0,0-.33-.32l-.27-.21-.28-.19-.29-.17a2.1,2.1,0,0,0-.3-.15,4.87,4.87,0,0,0-.84-.28,3.77,3.77,0,0,0-2.88.38c-1.06-.4-2-.75-2-.75a1,1,0,0,0-.21-.09h0l-.32-.13a5.42,5.42,0,0,0-.75-2.15,3.18,3.18,0,0,0-.27-.37l-.11-.13a2.82,2.82,0,0,0-.33-.36,4.59,4.59,0,0,0-.41-.36,5.09,5.09,0,0,0-.92-.55,3.34,3.34,0,0,0-.44-.17l-.38-.1-.22-.05-.51-.06a3.64,3.64,0,0,0-.74,0,4.24,4.24,0,0,0-1.89.74l-.41.29-.22-.1-.85-.44-.34-.16-.3-.14a4.87,4.87,0,0,0-.2-1.58,4.44,4.44,0,0,0-.27-.72,3.92,3.92,0,0,0-.29-.53,4.94,4.94,0,0,0-.7-.87,4,4,0,0,0-.31-.27,2.52,2.52,0,0,0-.33-.24l-.34-.22-.35-.18a3.12,3.12,0,0,0-.39-.15h0l-.08,0-.07,0-.06,0a.94.94,0,0,0-.24-.06h-.06l-.15,0-.47-.05h-.07a4.29,4.29,0,0,0-2.59.78l-.28.19a2.71,2.71,0,0,0-.25-.17c-.25-.13-.49-.28-.74-.44l-.82-.5a5.13,5.13,0,0,0-.78-2.47,4.84,4.84,0,0,0-1.93-1.7v-68a20.08,20.08,0,0,0-7.36-16.06,19.22,19.22,0,0,0-9-4.17c-.49-.09-1-.24-1.47-.36H54.3c-.83.2-1.66.37-2.49.6-8.33,2.29-13.32,7.69-15,16.15-.07.37-.21.72-.31,1.08v84.38c.2.83.4,1.67.6,2.49a20,20,0,0,0,19.5,15.34h46.5l-.31,6.21a4.74,4.74,0,0,0,1.07,3.37,4.46,4.46,0,0,0,3.17,1.62l63.35,3.19c15.11.77,24.5,0,29.37-1.92h0c2.11-.81,3.39-1.84,3.88-3a7,7,0,0,0,.4-1.29h0A45.23,45.23,0,0,0,204.71,182.75Zm-28.6-8.93a1.78,1.78,0,0,1,.22-.61,1.64,1.64,0,0,1,.19-.25,1.21,1.21,0,0,1,.24-.21l.86-.61.36-.25,3.13-2.22a1.4,1.4,0,0,1,.89-.25l.2,0a1.48,1.48,0,0,1,.71.32,1.45,1.45,0,0,1,.22.21,1.64,1.64,0,0,1,.19.25,2,2,0,0,1,.27,1.34,1.57,1.57,0,0,1-.64,1l-1.1.77-3.25,2.33,0,0-.05,0a.61.61,0,0,1-.14.07,1.33,1.33,0,0,1-.34.1.81.81,0,0,1-.22,0h-.11l-.19,0-.3-.09a1.48,1.48,0,0,1-.37-.2.73.73,0,0,1-.16-.14,1.54,1.54,0,0,1-.28-.34A1.79,1.79,0,0,1,176.11,173.82ZM167,169a1.4,1.4,0,0,1,.13-.36.56.56,0,0,1,.09-.17h0a1.16,1.16,0,0,1,.25-.29.86.86,0,0,1,.14-.13l.56-.38,3.54-2.53.25-.17.09-.06.1,0a2,2,0,0,1,.22-.09,1.35,1.35,0,0,1,.49-.07,1.65,1.65,0,0,1,1.32.82,2.14,2.14,0,0,1,.25.56,1.75,1.75,0,0,1-.63,1.82l-2,1.44-2.31,1.64a1.57,1.57,0,0,1-2.2-.55A2,2,0,0,1,167,169Zm-9.12-4.65A1.78,1.78,0,0,1,158,164a1.51,1.51,0,0,1,.32-.53l.23-.2.64-.47,3.64-2.56.07-.07a1.6,1.6,0,0,1,.9-.26l.24,0h0l.09,0,.21.08a1.36,1.36,0,0,1,.34.21,1.31,1.31,0,0,1,.24.23l0,.06a1,1,0,0,1,.12.16l.11.22a1.85,1.85,0,0,1,.17.72.57.57,0,0,1,0,.13.84.84,0,0,1,0,.27,1.67,1.67,0,0,1-.08.32.88.88,0,0,1-.11.24l0,0a.42.42,0,0,1-.09.14h0l-.08.1a1.59,1.59,0,0,1-.24.2l-2.23,1.59-2.11,1.51a.69.69,0,0,1-.19.1l-.05,0a1.13,1.13,0,0,1-.24.08h0a1.1,1.1,0,0,1-.31,0,1.58,1.58,0,0,1-.38-.05,1.43,1.43,0,0,1-.39-.15h0a1.66,1.66,0,0,1-.34-.25,1.75,1.75,0,0,1-.28-.33,1.47,1.47,0,0,1-.14-.28,1.31,1.31,0,0,1-.09-.28h0s0,0,0,0a.86.86,0,0,1,0-.17A1.51,1.51,0,0,1,157.92,164.3Zm-9.11-4.78a3,3,0,0,1,.1-.32,2.44,2.44,0,0,1,.14-.28,1.45,1.45,0,0,1,.41-.44l1.12-.81,3.23-2.3a1.17,1.17,0,0,1,.48-.2.52.52,0,0,1,.21,0h.36l.11,0a1.12,1.12,0,0,1,.31.1,1.36,1.36,0,0,1,.34.21l.15.13a1.35,1.35,0,0,1,.26.32l.11.19a1.19,1.19,0,0,1,.08.2c0,.1.06.2.08.3a.43.43,0,0,1,0,.16,1.35,1.35,0,0,1,0,.49,1.57,1.57,0,0,1-.63,1l-1.82,1.3-2.53,1.8a.69.69,0,0,1-.19.1,1.33,1.33,0,0,1-.4.12,1.41,1.41,0,0,1-.41,0,.51.51,0,0,1-.2,0,1.68,1.68,0,0,1-.73-.39,1.53,1.53,0,0,1-.29-.33c-.05-.1-.1-.19-.14-.29a1.4,1.4,0,0,1-.09-.29,1.55,1.55,0,0,1,0-.21,1.51,1.51,0,0,1,0-.3A2,2,0,0,1,148.81,159.52ZM147,174.36l.23-.07.22-.08a4.27,4.27,0,0,0,.83-.41,2.11,2.11,0,0,0,.31-.21,2.34,2.34,0,0,0,.31-.24l.23-.21a4,4,0,0,0,.44-.48,2.56,2.56,0,0,0,.2-.26,5.21,5.21,0,0,0,.36-.55c.06-.09.11-.19.16-.28v0a5.83,5.83,0,0,0,.28-.62,0,0,0,0,0,0,0c.08-.21.17-.44.24-.67l.06-.2a3.17,3.17,0,0,0,.12-.44.1.1,0,0,0,0-.07c0-.12.06-.24.08-.36s.05-.25.08-.38a.08.08,0,0,1,0,0c0-.17.05-.35.07-.54h0a1,1,0,0,0,0-.17c0-.13,0-.26,0-.39s0-.26,0-.4c0-.31,0-.64,0-1,0,0,.2.26.49.7a2.39,2.39,0,0,1,.13.21l.1.14.07.12.12.2.13.23.09.15.05.08,0,.09c.07.13.15.27.22.42s.1.18.14.27l.27.57c.09.19.17.4.25.6s.17.42.24.64.14.43.2.65a10,10,0,0,1,.26,1.21c0,.21.06.41.07.61a4.36,4.36,0,0,1,0,.51v.09a1.55,1.55,0,0,1,0,.22v.06a.76.76,0,0,1,0,.15,2.64,2.64,0,0,1,0,.29c0,.14,0,.27-.05.4l-.06.3-.06.25a1.05,1.05,0,0,1-.05.19,2.25,2.25,0,0,1-.08.24,5.59,5.59,0,0,1-1.47,2.24l-.15.14-.17.15c-.11.1-.23.19-.36.29l-.39.27a4.34,4.34,0,0,1-.91.47,4.24,4.24,0,0,1-.5.18,4.07,4.07,0,0,1-.5.13l-.16,0a1.94,1.94,0,0,1-.33.07l-.13,0-.58.08h0c-.2,0-.41,0-.61.05h0a12.94,12.94,0,0,1-1.39,0h-.19c-.19,0-.38,0-.58,0l-.71-.06-.89-.12-9.26-2.47-.92-.34c-.62-.22-1.24-.45-1.86-.7h0c-.61-.24-1.23-.48-1.84-.74l-.93-.38-1.81-.77h0c-.59-.26-1.19-.52-1.77-.79l-.87-.39c-.86-.39-1.7-.79-2.5-1.17l-1.57-.76c-1-.5-2-1-2.84-1.42l-1.24-.64-.43-.22-.68-.36-.12-.06-.38-.2-.46-.24-.79-.43-.33-.18-.25-.14-.27-.15-.19-.1a2,2,0,0,0-.18-.1l.19,0,.16,0,.17,0,.22.05.1,0,.21.06.25.06h.05l1.07.27h0l.23.06.36.09h0l.65.17.17,0,1.09.27.23.06h0l.63.17.93.23,1.54.38,2,.51,2,.5c3,.74,6.29,1.52,9.38,2.23l2.29.52,2.65.59.92.2,2.54.52.77.15.72.14a7,7,0,0,0,2.11.09h.08a5.25,5.25,0,0,0,.73-.14Zm-.6-21.61-.61.18c-.4.14-.82.29-1.24.46s-.85.35-1.29.55l-.66.31-.69.33-.7.34c-1.63.79-3.44,1.68-5.56,2.5h0l-.25.1-1.48-2.07-.08-.11a1.75,1.75,0,0,1-.31-1.24,1.55,1.55,0,0,1,0-.21s0,0,0,0,0,0,0-.05a1.57,1.57,0,0,1,.49-.75l0,0h0a.08.08,0,0,0,0,0l.06-.05h0l.17-.1.07,0,.29-.13h0l0,0,7.1-3.21a1.68,1.68,0,0,1,.32-.09l.12,0a1.53,1.53,0,0,1,1.11.3l2.95,2.26.06.05V152l.36.64Zm-43.72,8.66A68.89,68.89,0,0,0,102,174H57.09a10.06,10.06,0,0,1-9.63-5.73,11.07,11.07,0,0,1-1-5V108.38c0-8,0-16,0-24a10.38,10.38,0,0,1,2.32-6.82A10.23,10.23,0,0,1,57,73.87q21.15,0,42.28,0,18.32,0,36.63,0a10.4,10.4,0,0,1,6.92,2.33,10.22,10.22,0,0,1,3.68,8.26q0,25,0,50v14.31l-1.59-1.22a3.84,3.84,0,0,0-3.91-.47l-7.43,3.37a4,4,0,0,0-2.32,2.79,4.4,4.4,0,0,0,.65,3.65l1,1.48c-.6.2-1.22.38-1.83.55a49.3,49.3,0,0,1-15.58,1.48l-.75,0-.4,0a78,78,0,0,1-8.79-1.12A2.54,2.54,0,0,0,102.7,161.41Zm99.06,24.76-.11.11a.45.45,0,0,0-.1.13,2.53,2.53,0,0,1-.4.49,5.77,5.77,0,0,1-1.45.94c-.2.09-.42.19-.64.27-.48.19-1,.37-1.59.54-.25.08-.51.14-.77.21l-1,.23c-.18,0-.37.08-.56.12h-.06l-1.24.23h0c-.43.08-.86.14-1.3.2l-1.06.14-.95.11h0l-1,.1-1,.08-.91.06-.93.05-1.78.05h-1.78l-.47,0h-.43a1,1,0,0,0-.3,0l-.15,0-.12.06a.85.85,0,0,0-.25.17.38.38,0,0,0-.11.11,1,1,0,0,0-.21.32,1,1,0,0,0-.08.23,1.87,1.87,0,0,0,0,.25,1.21,1.21,0,0,0,.09.54,1,1,0,0,0,.1.21h0a1.24,1.24,0,0,0,.14.18.91.91,0,0,0,.17.17l.18.11h0a1.11,1.11,0,0,0,.45.12h1l1.71,0h.76l.83,0,.44,0,.45,0,.94,0h.15l.71,0,.62-.05h0l1.56-.15h0c.93-.11,1.87-.23,2.81-.39l.81-.14.35-.07.41-.08,1.19-.26.67-.17.63-.18h0l.62-.2.6-.21h0c.2-.07.38-.15.57-.23l.55-.24A4.71,4.71,0,0,0,201,190c.19-.1.38-.2.56-.31a5.49,5.49,0,0,1-.68,1.93,1.83,1.83,0,0,1-.31.34,5.2,5.2,0,0,1-.61.43h0c-2.63,1.55-10.7,3.54-29.41,2.6l-63.37-3.2H107l-.06,0-.18-.07a.19.19,0,0,1-.1,0h0a1.69,1.69,0,0,1-.36-.3,1.35,1.35,0,0,1-.27-.92l.32-6.45,67.05,3.38a103.12,103.12,0,0,0,26.86-2.09,6.09,6.09,0,0,0,1.47-.58.9.9,0,0,1,0,.16,2.64,2.64,0,0,1,0,.29c0,.09,0,.19,0,.29l0,.46v.08c0,.09,0,.17,0,.26ZM134.11,153h0l0,0Zm0,0h0Zm47.93,39.75a1.29,1.29,0,0,1-.44-.11,1.11,1.11,0,0,0,.45.12h0Zm-48-39.72h0l0,0Zm0,0h0Zm47.93,39.75a1.29,1.29,0,0,1-.44-.11,1.11,1.11,0,0,0,.45.12h0Z" fill="#8297b4"/></g></svg>