<svg xmlns="http://www.w3.org/2000/svg" width="256" height="246" viewBox="0 0 256 246"><title>icon30</title><g id="Layer_5" data-name="Layer 5"><path d="M255.21,132.88l-27.47,82.35a15.42,15.42,0,0,1-14.63,10.54H15.43a15.47,15.47,0,0,1-14.08-9.11V39.35a15.46,15.46,0,0,1,14.08-9.12H213.11a15.42,15.42,0,0,1,14.63,10.54l27.47,82.35A15.51,15.51,0,0,1,255.21,132.88Z" fill="#fff"/></g><g id="Layer_1" data-name="Layer 1"><path d="M249.27,125.1,221.8,42.75a9.17,9.17,0,0,0-8.69-6.25H15.43a9.17,9.17,0,0,0-9.16,9.16V210.35a9.17,9.17,0,0,0,9.16,9.15H213.11a9.17,9.17,0,0,0,8.69-6.25l27.47-82.35A9.14,9.14,0,0,0,249.27,125.1ZM151.06,97.76l.45-.26c3.42-1.88,6.58,0,6.58,3.78,0,.15,0,.29,0,.44a8.55,8.55,0,0,1-.09.87c0,.15-.05.31-.08.46a2.74,2.74,0,0,1-.09.39c0,.14-.07.28-.11.42a11.13,11.13,0,0,1-.44,1.22c-.12.26-.25.52-.38.78a11.92,11.92,0,0,1-.7,1.1l-.26.34-.21.26a2.85,2.85,0,0,1-.23.26,10.52,10.52,0,0,1-.73.76c-.22.2-.44.38-.67.56a6.85,6.85,0,0,1-.7.5c-.25.16-.5.3-.75.44a8.08,8.08,0,0,1-.79.37l-.5.19-.31.11-.28.08a8.49,8.49,0,0,1-1,.22,7.57,7.57,0,0,1-1.64.1,2.07,2.07,0,0,1-.35,0,2.38,2.38,0,0,1-.37-.06,3.69,3.69,0,0,1-.65-.18l-.17-.08a3.35,3.35,0,0,1-.63-.37l-.21-.18a2.65,2.65,0,0,1-.41-.41,4.27,4.27,0,0,1-.47-.67,0,0,0,0,1,0,0,5.05,5.05,0,0,1-.33-.71,4.26,4.26,0,0,1-.25-2,4.83,4.83,0,0,1,.27-1,4.59,4.59,0,0,1,.24-.5c.2-.37.41-.74.62-1.1s.45-.72.68-1.07.48-.69.74-1,.42-.55.65-.81a.08.08,0,0,1,0,0,1.68,1.68,0,0,1,.18-.21,2.84,2.84,0,0,1,.24-.26.43.43,0,0,1,.11-.12,1.11,1.11,0,0,1,.18-.19c.09-.09.17-.18.26-.26a3.71,3.71,0,0,1,.29-.27,2.84,2.84,0,0,1,.26-.24,2.68,2.68,0,0,1,.26-.23,3.47,3.47,0,0,1,.37-.3,9.77,9.77,0,0,1,1-.69C150.76,97.94,150.91,97.85,151.06,97.76Zm-8.58-13.54.78-.3q.3-.11.6-.18c.21-.06.42-.11.64-.15a11.2,11.2,0,0,1,2.1-.22l.44,0a1.53,1.53,0,0,1,.3,0,2.2,2.2,0,0,1,.37.06,2,2,0,0,1,.35.09l.24.08.13,0a2.09,2.09,0,0,1,.3.14,3.16,3.16,0,0,1,.62.47,1.3,1.3,0,0,1,.19.22.58.58,0,0,1,.1.12,2.9,2.9,0,0,1,.19.29,3.07,3.07,0,0,1,.17.31.87.87,0,0,1,.07.17,1.82,1.82,0,0,1,.11.3,2.4,2.4,0,0,1,.12.38,2.71,2.71,0,0,1,.09.41,5.4,5.4,0,0,1,.11.75c0,.19,0,.38.05.59s0,.42,0,.65,0,.22,0,.32,0,.21,0,.32a2.11,2.11,0,0,1,0,.25,3.93,3.93,0,0,1-.06.48,9.92,9.92,0,0,1-.51,2c-.05.15-.11.3-.17.45-.13.31-.27.62-.43.92s-.22.41-.34.61-.18.3-.28.45-.29.43-.45.64l-.23.3A12.26,12.26,0,0,1,146.43,97a4.57,4.57,0,0,1-.36.29,6.55,6.55,0,0,1-.53.39l-.16.11-.25.16a8.35,8.35,0,0,1-.77.43,9,9,0,0,1-2.05.75,8,8,0,0,1-2.41.22l-.23,0-.22,0-.19,0a3.63,3.63,0,0,1-.83-.24,1.75,1.75,0,0,1-.34-.15l-.12-.06a1.32,1.32,0,0,1-.32-.2A3.21,3.21,0,0,1,137,98c-.1-.11-.19-.22-.28-.34a3.89,3.89,0,0,1-.4-.69,1.67,1.67,0,0,1-.08-.2,3,3,0,0,1-.19-.55,3.88,3.88,0,0,1-.14-.61,8.09,8.09,0,0,1-.08-2.23c0-.2,0-.41.08-.61s0-.22.05-.33a10.19,10.19,0,0,1,.6-2c.11-.27.23-.54.36-.8s.28-.52.43-.78.27-.44.42-.65.39-.54.6-.79.38-.45.59-.67a3,3,0,0,1,.31-.31,11.37,11.37,0,0,1,2.44-1.83Zm-14.81-9a4.09,4.09,0,0,1,.28-.33,3.58,3.58,0,0,1,.26-.29,4.17,4.17,0,0,1,.36-.37c.13-.13.26-.26.4-.38a11.41,11.41,0,0,1,1-.83l.4-.28c.17-.12.34-.22.51-.32a7.45,7.45,0,0,1,.83-.45,8,8,0,0,1,.8-.34,3.12,3.12,0,0,1,.43-.15,6.79,6.79,0,0,1,1-.25,3.2,3.2,0,0,1,.41-.07h.07l.33,0a3.4,3.4,0,0,1,.45,0l.42,0,.35,0a3.63,3.63,0,0,1,.67.15l.32.1a1.66,1.66,0,0,1,.37.14,4.33,4.33,0,0,1,1.14.67,1.3,1.3,0,0,1,.22.19,2,2,0,0,1,.36.36,1.64,1.64,0,0,1,.21.25,4.36,4.36,0,0,1,.45.67,6.59,6.59,0,0,1,.42,1,4.17,4.17,0,0,1,.13.42c0,.13.07.27.09.41a3.11,3.11,0,0,1,.08.44l.06.47a7.77,7.77,0,0,1,0,1.67,3.34,3.34,0,0,1-.05.43c0,.17,0,.33-.08.5a1.77,1.77,0,0,1,0,.2,4.7,4.7,0,0,1-.12.51c0,.19-.1.37-.16.56s-.12.37-.19.56a14.07,14.07,0,0,1-.56,1.34q-.13.3-.3.6c-.11.2-.22.39-.34.58s-.17.3-.27.45a2.92,2.92,0,0,1-.21.32,2.73,2.73,0,0,1-.21.3c-.23.33-.48.65-.74,1q-.19.24-.42.48l-.17.18-.17.18-.69.66a11.74,11.74,0,0,1-1.49,1.11c-.22.13-.43.25-.65.36a4.81,4.81,0,0,1-.46.22l-.24.1a.92.92,0,0,1-.23.09l-.4.13-.17,0-.26.07-.25.06a7,7,0,0,1-1.71.19,4.74,4.74,0,0,1-.65,0,4.21,4.21,0,0,1-.49-.09,1.9,1.9,0,0,1-.39-.11.73.73,0,0,1-.19-.07l-.28-.11a4.09,4.09,0,0,1-.46-.25.55.55,0,0,1-.14-.09,2.1,2.1,0,0,1-.3-.22,2.51,2.51,0,0,1-.31-.26,4.47,4.47,0,0,1-.46-.5l-.16-.21-.19-.27a7.77,7.77,0,0,1-.84-1.76,7.28,7.28,0,0,1-.36-1.8c0-.35,0-.71,0-1.07a.11.11,0,0,0,0-.08,0,0,0,0,0,0,0,3.91,3.91,0,0,1,0-.48c0-.17,0-.35.07-.52a3,3,0,0,1,.1-.5c0-.14.06-.29.1-.43s.15-.54.24-.8.19-.53.3-.8h0c.11-.26.23-.52.35-.77s.13-.26.2-.39l.21-.38c.11-.19.22-.37.34-.55s.14-.22.21-.33a1.33,1.33,0,0,1,.14-.19,7.4,7.4,0,0,1,.53-.72A1.68,1.68,0,0,1,127.67,75.27Zm-9.43-16.85a7.51,7.51,0,0,1,1.67-.19c.21,0,.42,0,.62,0h0a6.17,6.17,0,0,1,.62.09,1.27,1.27,0,0,1,.28.06l.37.1a2.53,2.53,0,0,1,.36.12l.4.16.3.15a4.24,4.24,0,0,1,.61.36,4.33,4.33,0,0,1,.37.27.47.47,0,0,1,.09.06,4.59,4.59,0,0,1,.41.36.8.8,0,0,1,.13.13c.14.14.27.28.4.43a2.88,2.88,0,0,1,.3.39,2.83,2.83,0,0,1,.2.28l.12.17a1.76,1.76,0,0,1,.14.23,3.72,3.72,0,0,1,.19.34,9,9,0,0,1,.88,2.44c0,.17.08.34.11.52s.08.51.11.78a3.88,3.88,0,0,1,0,.48,0,0,0,0,1,0,0s0,0,0,0c0,.4,0,.82,0,1.25v.28a23,23,0,0,1-.94,4c-.1.32-.22.64-.35,1a15.4,15.4,0,0,1-.79,1.7,3,3,0,0,1-.19.35,14,14,0,0,1-.84,1.37,4.33,4.33,0,0,1-.27.37.51.51,0,0,1-.09.13c-.1.14-.21.29-.34.44a.1.1,0,0,1,0,0,12.43,12.43,0,0,1-1.21,1.33c-.12.13-.25.25-.38.37a12.62,12.62,0,0,1-1.31,1.09q-.21.17-.42.3a.18.18,0,0,1-.09.07c-.2.15-.41.28-.62.41,0,0,0,0,0,0-.32.2-.64.39-1,.58a9.12,9.12,0,0,1-4.39,1.21l-.48,0-.19,0h0l-.27,0-.3,0a3.55,3.55,0,0,1-.71-.19h0a.58.58,0,0,1-.17-.06.49.49,0,0,1-.19-.07,1.71,1.71,0,0,1-.39-.17,3,3,0,0,1-.4-.21s0,0,0,0a.29.29,0,0,1-.12-.07,2.1,2.1,0,0,1-.33-.22,2.27,2.27,0,0,1-.32-.22,5.92,5.92,0,0,1-.89-.85,3.79,3.79,0,0,1-.31-.37c-.09-.12-.19-.25-.28-.39s-.18-.27-.27-.42a5.07,5.07,0,0,1-.44-.87,2,2,0,0,1-.1-.21,9.42,9.42,0,0,1-.5-1.5c-.06-.21-.1-.43-.15-.66C105.47,68.71,111.16,60,118.24,58.42Zm74.13,72-1.22.74c-2.51,1.52-5,3.08-7.47,4.66l-7.4,4.76L174,142.07c-1.07.77-2.15,1.54-3.23,2.29-.93.65-1.85,1.29-2.78,1.92l-.49.34q-2.64,1.8-5.29,3.54l-1.3.86c-1.9,1.24-3.8,2.45-5.71,3.65-.78.5-1.57,1-2.36,1.47q-2.67,1.67-5.36,3.28-5.83,4.2-11.84,8.13c-2,1.31-4,2.6-6.06,3.85s-4.09,2.5-6.16,3.7h0a2.64,2.64,0,0,1-.29.21c-1.15.83-2.29,1.65-3.45,2.46l-3.33,2.31c-.47.32-1,.65-1.44,1-1,.65-1.92,1.3-2.89,1.93q-.25.18-.51.33-1.81,1.2-3.64,2.37l-1.25.8c-2.09,1.33-4.19,2.63-6.31,3.92l-3.39,2h0c-.62.43-1.24.84-1.86,1.26q-1.68,1.14-3.36,2.25c-2,1.33-4,2.65-5.93,4q-2.05,1.41-4.1,2.83c-2.11,1.48-3.46,1.23-4.52-1.1-1.92-4.21-5.32-6.47-9.52-8.3a22.24,22.24,0,0,1-2.24-1.11c-.24-.13-.48-.27-.7-.41a7.57,7.57,0,0,1-.67-.42,19.39,19.39,0,0,1-2.29-1.74c-.23-.2-.46-.41-.68-.63s-.43-.43-.64-.66-.41-.45-.6-.68-.35-.42-.51-.63-.43-.58-.63-.88-.43-.65-.62-1l-.32-.58c-.11-.19-.2-.37-.29-.56a7.89,7.89,0,0,1-.39-.84c-.08-.17-.15-.34-.22-.51-.13-.32-.25-.64-.35-1s-.23-.7-.33-1.06-.19-.72-.27-1.09a18.37,18.37,0,0,1-.35-2c0-.2,0-.41-.07-.61a6,6,0,0,1-.06-.61v-.06a8.43,8.43,0,0,1-.06-1,2.18,2.18,0,0,1,0-.25c0-.11,0-.22,0-.33,0-.67,0-1.35,0-2,0-.44,0-.87.09-1.3s.07-.78.12-1.17.1-.77.16-1.14c.13-.77.28-1.53.47-2.27q.15-.6.33-1.17c.08-.26.16-.51.25-.76a.07.07,0,0,1,0,0l.12-.33c.08-.25.18-.5.28-.74s.28-.68.44-1,.32-.66.49-1l.35-.64.37-.62c.17-.29.36-.57.56-.85a18.92,18.92,0,0,1,2-2.41c.18-.19.37-.38.56-.56s.51-.49.77-.71.54-.46.82-.68l.4-.31.84-.6c.29-.2.59-.39.89-.57s.61-.37.93-.55h0c.38-.21.77-.41,1.17-.61l.61-.29.63-.28.89-.37c.91-.34,1.83-.64,2.75-1a35.87,35.87,0,0,0,4.48-2c.7-.37,1.38-.76,2-1.16s1.28-.83,1.89-1.27,1.19-.91,1.75-1.38c.35-.3.69-.6,1-.91l.37-.36c.3-.3.6-.6.88-.91s.66-.73,1-1.11l.16-.2c.29-.36.56-.72.83-1.09.13-.18.26-.36.38-.55a22.66,22.66,0,0,0,1.43-2.35c.07-.13.13-.26.2-.38s.17-.33.24-.49.15-.3.21-.45a21.3,21.3,0,0,0,1-2.32l.3-.88c.19-.6.37-1.22.52-1.84.07-.31.15-.63.21-.95s.13-.62.18-.94a32.36,32.36,0,0,0,.5-4.61c0-.21,0-.43,0-.64,0-.62,0-1.26,0-1.91a90.58,90.58,0,0,1,.84-15c0-.27.08-.55.13-.81s.08-.46.13-.68q.15-.73.33-1.44c.06-.24.13-.47.2-.7a3.37,3.37,0,0,1,.1-.34c0-.11.07-.23.11-.34.14-.42.29-.84.45-1.25s.25-.61.38-.91.15-.34.24-.51.15-.32.23-.47q.26-.51.54-1c.18-.31.37-.62.57-.92s.2-.31.31-.46c.3-.43.62-.85,1-1.25.21-.25.43-.5.65-.74s.43-.45.66-.67a16.85,16.85,0,0,1,3.89-2.83c.28-.16.57-.3.86-.43l.66-.29c.3-.13.61-.24.93-.35s.56-.19.84-.27l.8-.22q.48-.12,1-.21l.8-.13.51-.07a21.3,21.3,0,0,1,4.16-.07c.59.05,1.18.12,1.78.22h0a24.58,24.58,0,0,1,3.71.88,27.79,27.79,0,0,1,5.69,2.52c.75.43,1.48.9,2.2,1.4.33.22.65.44,1,.69s.67.51,1,.78.66.54,1,.82c.47.41.94.85,1.4,1.31.15.14.3.28.45.44l.16.16c.27.28.54.56.79.85s.35.38.51.57.55.63.81,1,.37.45.53.67.53.69.78,1l.17.24c.28.39.55.79.81,1.19.15.23.3.46.44.69a.37.37,0,0,1,.07.12c.16.24.3.48.44.72.37.62.71,1.24,1,1.89.18.33.35.68.51,1,.25.51.48,1,.7,1.55.07.15.14.31.2.47s.13.3.18.46.25.63.36.94.31.88.45,1.33c.06.14.1.3.15.45.15.47.29.95.41,1.43s.2.77.29,1.15.18.77.25,1.15c.15.78.29,1.56.4,2.35s.19,1.58.25,2.38a4.27,4.27,0,0,1,0,.71c0,.15,0,.3,0,.46a6.61,6.61,0,0,0-.05,2.07,1.14,1.14,0,0,0,.09.26l0,.07a.24.24,0,0,0,.06.11l.07.11.1.11.11.1a1.47,1.47,0,0,0,.28.16,2.16,2.16,0,0,0,.82.14,3.86,3.86,0,0,0,.6,0l.25,0,.27-.07a1.42,1.42,0,0,0,.29-.1h0l.12,0,0,0,0,0h0a3.62,3.62,0,0,0,.57-.37,1,1,0,0,0,.19-.16,2.61,2.61,0,0,0,.23-.24,2.27,2.27,0,0,0,.29-.4,2.53,2.53,0,0,0,.13-.22,3,3,0,0,0,.19-.41.92.92,0,0,0,.09-.23c0-.12.08-.24.11-.37a4.35,4.35,0,0,0,.12-.75,2.64,2.64,0,0,0,0-.29c0-.11,0-.22,0-.34s0-.31,0-.49a7.66,7.66,0,0,1,.12-1.93,6.66,6.66,0,0,1,.34-1.33,4.93,4.93,0,0,1,.24-.64,9.67,9.67,0,0,1,.61-1.2h0a12.44,12.44,0,0,1,.78-1.12,5.85,5.85,0,0,1,.45-.54,3.33,3.33,0,0,1,.36-.39c.2-.21.41-.42.62-.62s.71-.63,1.08-.93.76-.58,1.16-.85a8.93,8.93,0,0,1,1.39-.78,6.62,6.62,0,0,1,.88-.31,3.34,3.34,0,0,1,.43-.1,2.9,2.9,0,0,1,.41-.06l.4,0h0l2.92,1.32a2.61,2.61,0,0,1,.27.3l.27.34a1,1,0,0,1,.11.17l0,0a4.86,4.86,0,0,1,.33.54l.63,1.37c4.91-2.14,9-5.55,13.51-8.41a11,11,0,0,1,1.11-.65,6.88,6.88,0,0,1,.78-.37,3,3,0,0,1,.38-.15,5.37,5.37,0,0,1,.75-.23l.27,0a3.56,3.56,0,0,1,1-.07H179a2.78,2.78,0,0,1,.49.08l.12,0a3.81,3.81,0,0,1,.64.24l.15.08a1.65,1.65,0,0,1,.25.15,3.83,3.83,0,0,1,.49.36,5.19,5.19,0,0,1,.67.66,1.63,1.63,0,0,1,.17.2,9.76,9.76,0,0,1,.95,1.38c.41.7.82,1.4,1.24,2.09.84,1.38,1.69,2.75,2.53,4.12h0q1.29,2,2.6,4.07t2.66,4l1.35,2C194.94,127.45,195.06,128.83,192.37,130.44Z" fill="none"/><path d="M83.08,199.48c-2.88,2.08-4.32,1.49-6-1.4A148,148,0,0,0,68.76,185c-2.35-3.25-1.89-5.08,1.52-7.28,21.36-13.77,42.6-27.72,63.85-41.65,9.34-6.12,18.61-12.34,27.9-18.51-.3-.68-.61-1.35-.91-2h0c-1.55-4.11-4.47-5.26-8.08-2.82-3.31,2.25-6,5.42-5.76,9.56.17,3.13-1.5,4.64-3.59,4.63-2.52,0-1.33-2.78-1.44-4.31-1.08-14.59-10.69-27.71-23.39-31.72-13-4.1-24,2.81-25.89,16.24a90.58,90.58,0,0,0-.84,15C92.46,136,85.59,146,72.6,150.77c-1.22.44-2.46.82-3.65,1.33-9,3.91-13.2,11.15-13.64,20.62s3.43,16.79,12.29,20.65c4.2,1.83,7.6,4.09,9.52,8.3,1.06,2.33,2.41,2.58,4.52,1.1,5-3.52,10.17-6.89,15.26-10.32l-1.15-1C91.51,194.08,87.12,196.54,83.08,199.48Z" fill="#8398b4"/><path d="M118.11,81.26c5.54-3,8.09-8.07,8.89-13.49.26-6.5-3.74-10.48-8.76-9.35-7.08,1.58-12.77,10.29-11.39,17.44C108,81.72,112.82,84.14,118.11,81.26Z" fill="#8398b5"/><path d="M125,85.33c1.19,3.52,3.76,4.66,7.23,3.63,4.58-1.37,8.71-7.72,8.21-12.5-.36-3.41-2.33-5.14-5.3-5.33C128.78,71.34,123.09,79.6,125,85.33Z" fill="#8498b5"/><path d="M135.83,93.39c-.39,4.5,2.13,6.71,6.48,5.7a11.36,11.36,0,0,0,8.26-10.59c0-4.33-1.76-5.72-6.07-4.91A11.37,11.37,0,0,0,135.83,93.39Z" fill="#8398b5"/><path d="M183,108.77c-2.31-3.94-4.83-3.92-8.34-1.67-4.47,2.86-8.6,6.27-13.51,8.41h0c.3.68.61,1.35.91,2,4.35-2.74,8.79-5.36,13-8.27,2.85-2,4.75-1.92,6.61,1.28,2.85,4.86,5.91,9.6,9.08,14.25,1.56,2.29,1.16,3.51-1.12,5-5.7,3.61-11.25,7.46-16.87,11.22l1.24,1.08h0c6.12-3.89,12.16-7.91,18.38-11.62,2.69-1.61,2.57-3,1-5.33C189.75,119.76,186.23,114.34,183,108.77Z" fill="#879cb7"/><path d="M144.77,104.86a4.38,4.38,0,0,0,.56,5c1.14,1.36,2.79,1.48,4.43,1.21a10.2,10.2,0,0,0,8.33-9.77c0-3.73-3.16-5.66-6.58-3.78A17.55,17.55,0,0,0,144.77,104.86Z" fill="#8499b5"/><path d="M122.19,174c-9,5.5-17.89,11.18-26.44,17.39h0l1.15,1c9.07-5.42,17.95-11.14,26.51-17.35h0Z" fill="#899db8"/><path d="M172.75,141c-9,5.48-17.89,11.22-26.49,17.37.41.35.81.71,1.21,1.07,9.06-5.45,17.93-11.18,26.52-17.35h0Z" fill="#899db8"/><path d="M122.19,174l1.21,1.08h0c8.28-4.82,16.28-10.09,24.06-15.68-.4-.36-.8-.72-1.21-1.07C138,163.18,130,168.53,122.19,174Z" fill="#899db8"/><path d="M190.74,124.8c-3.17-4.65-6.23-9.39-9.08-14.25-1.86-3.2-3.76-3.25-6.61-1.28-.53.37-1.06.73-1.6,1.08s-1.07.71-1.61,1.05l-1.62,1-1.42.89-.15.1-.06,0-.91.56-.73.46-1.65,1-1.64,1-1.11.7-.42.26-.09.06h0c-1.65,1.11-3.31,2.21-5,3.3l-.12.08a.94.94,0,0,1-.18.12l-.21.14-1.49,1q-1.94,1.31-3.87,2.58l-1.61,1.07-1.5,1,0,0-1.27.84-.15.1-.24.16-.17.12h0l-.25.17-.12.08-.07,0-.14.1-.2.13c-.13.1-.26.18-.39.27l-.33.21-1.42.94h0l-.25.17-1.9,1.27-.85.57-1.11.72-1.53,1-3.5,2.3h0l-2.74,1.8-.85.56-4.43,2.9-.75.49-.26.17-6.46,4.24-.45.29-1.38.91-6.59,4.31-4.87,3.19-.36.24-.2.13-4.46,2.91h0l-.12.08,0,0-.09.06-.14.09-1.52,1L87.11,166.8l-.83.54-16,10.36c-3.41,2.2-3.86,4-1.52,7.28a146.59,146.59,0,0,1,8.35,13.1c1.32,2.31,2.51,3.16,4.4,2.33.24-.11.48-.24.74-.39h0c.26-.16.53-.34.81-.55,1-.73,2.05-1.44,3.09-2.12h0c1-.69,2.1-1.36,3.17-2l3.21-2,3.19-2h0c8.55-6.21,17.43-11.89,26.44-17.39,7.85-5.49,15.79-10.84,24.08-15.67,1.07-.77,2.15-1.53,3.23-2.29,1.41-1,2.82-2,4.25-2.92l.54-.36q1.67-1.14,3.36-2.25l.69-.46.27-.18,2.39-1.55,0,0,2.9-1.85c1-.63,2-1.24,2.93-1.85q2.94-1.85,5.9-3.64c5.62-3.76,11.17-7.61,16.87-11.22C191.9,128.31,192.3,127.09,190.74,124.8ZM94.53,179.7a2.12,2.12,0,0,1-.59.28.43.43,0,0,1-.14,0h0a.45.45,0,0,1-.16,0h-.05a1.13,1.13,0,0,1-.41,0,1.46,1.46,0,0,1-.48-.21,1.8,1.8,0,0,1-.21-.19l-.1-.14c-.7-1.05-1.4-2.1-2.08-3.16-.46-.7-.91-1.41-1.36-2.13l-.65-1.08c-.43-.72-.85-1.45-1.25-2.18a1.32,1.32,0,0,1-.18-.54,1.6,1.6,0,0,1,0-.31.64.64,0,0,1,.06-.18.56.56,0,0,1,.09-.17l0-.06.08-.1.07-.06a1.59,1.59,0,0,1,.24-.2l.27-.17L88,169l.37-.17.54-.27,1,1.08a9.9,9.9,0,0,1,.86,1.1l1,1.61c1,1.63,2,3.27,3.07,4.9A1.61,1.61,0,0,1,94.53,179.7Zm2.66-8.18a5,5,0,0,1-1.63-1.34,2.09,2.09,0,0,1-.23-.29,3.64,3.64,0,0,1-.24-.35c-.08-.11-.15-.23-.22-.35l-.24-.4c0-.09-.1-.18-.14-.27-.35-.68-.66-1.4-1-2.08a1.14,1.14,0,0,1-.09-.82.64.64,0,0,1,.1-.24,1.14,1.14,0,0,1,.15-.23.9.9,0,0,1,.2-.19,1.67,1.67,0,0,1,.48-.28,1.22,1.22,0,0,1,.69-.09c2.57.43,3.06,2.94,4,4.85C99.49,170.41,98.48,171.11,97.19,171.52Zm8.28-6.08c0,.16-.08.31-.13.45a4.68,4.68,0,0,1-.2.45c0,.08-.09.16-.14.23a2.1,2.1,0,0,1-.53.54.7.7,0,0,1-.17.09.93.93,0,0,1-.75,0l-.34-.16a2,2,0,0,1-.32-.18,3.52,3.52,0,0,1-.45-.3,4.1,4.1,0,0,1-.53-.49l-.33-.38a9.34,9.34,0,0,1-1.43-3l-.24-.8a.72.72,0,0,1,0-.41s0,0,0-.06a.42.42,0,0,1,0-.1,1,1,0,0,1,0-.1.9.9,0,0,1,.14-.2,1.07,1.07,0,0,1,.14-.16l.17-.14a.21.21,0,0,1,.08-.06,1.28,1.28,0,0,1,.47-.2,1.07,1.07,0,0,1,.25,0,.75.75,0,0,1,.21,0,3.19,3.19,0,0,1,.44.13l.1,0h0a1.73,1.73,0,0,1,.31.14,2.12,2.12,0,0,1,.36.21,2,2,0,0,1,.32.25,1.85,1.85,0,0,1,.28.28,2.09,2.09,0,0,1,.24.28,11.52,11.52,0,0,1,1.06,1.88c.09.2.19.4.29.59s.18.32.28.47a2.33,2.33,0,0,0,.17.26l.09.12.1.12A.94.94,0,0,1,105.47,165.44Zm8.25.46a1.92,1.92,0,0,1-.22.57l-.08.13,0,0a2.09,2.09,0,0,1-.14.17,3.89,3.89,0,0,1-.7.56,2,2,0,0,1-1.06.36l-.21,0-.2-.05a1.49,1.49,0,0,1-.62-.41,1.29,1.29,0,0,1-.19-.21,4.16,4.16,0,0,1-.36-.51l-.18-.31c-.25-.46-.49-1-.73-1.52l-.18-.39a9.41,9.41,0,0,0-.84-1.48q-.13-.18-.27-.33l-.13-.14h0a5.29,5.29,0,0,1-.61-.71,8,8,0,0,1-.51-.81c-.16-.28-.31-.57-.45-.86s-.29-.58-.43-.87a2.45,2.45,0,0,1-.16-.45,1.43,1.43,0,0,1-.06-.39.9.9,0,0,1,0-.18.28.28,0,0,1,0-.09,1,1,0,0,1,.16-.34,2.09,2.09,0,0,1,.14-.17,1.07,1.07,0,0,1,.16-.14,2.7,2.7,0,0,1,.33-.22l.15-.08.31-.15.5-.21c1.94.51,2.69,2.36,3.21,3.83a1.42,1.42,0,0,0,.08.18,1.11,1.11,0,0,0,.09.19,5.22,5.22,0,0,0,.7,1l.2.25a24.81,24.81,0,0,1,1.82,2.19,2.38,2.38,0,0,1,.18.3,0,0,0,0,1,0,0,1.64,1.64,0,0,1,.18.38,1.81,1.81,0,0,1,.09.31,1.75,1.75,0,0,1,0,.51A0,0,0,0,1,113.72,165.9Zm3.85-7.74a.71.71,0,0,1-.16.31.2.2,0,0,1-.06.07l0,.05a1,1,0,0,1-.16.12,1.64,1.64,0,0,1-.22.14c-.23.14-.5.26-.74.39l-.22.13-.19.13a8.16,8.16,0,0,1-1.24-1c-.16-.15-.31-.3-.45-.46a6.26,6.26,0,0,1-.41-.49,8.76,8.76,0,0,1-.79-1.22c-.12-.23-.24-.45-.34-.68a11.27,11.27,0,0,1-.57-1.6,1.27,1.27,0,0,1,0-.26.91.91,0,0,1,0-.23,1.34,1.34,0,0,1,.09-.26,1.76,1.76,0,0,1,.14-.23l.07-.09a.52.52,0,0,1,.1-.11.8.8,0,0,1,.17-.15.18.18,0,0,1,.07,0l.25-.17.27-.11.21-.05a1.4,1.4,0,0,1,.35,0,.37.37,0,0,1,.14,0h0l.39.19a4.82,4.82,0,0,1,.69.45,5,5,0,0,1,.77.76,1.92,1.92,0,0,1,.18.22,7,7,0,0,1,.73,1.17c.07.14.14.28.2.42.15.32.28.65.4,1l.15.44c.07.2.13.39.19.59a1.17,1.17,0,0,1,.06.35A.64.64,0,0,1,117.57,158.16Zm6.34-5.18a3.48,3.48,0,0,1,0,.47,2.5,2.5,0,0,1-.09.43,1.49,1.49,0,0,1-.14.37,2.84,2.84,0,0,1-.18.31h0a1,1,0,0,1-.22.24.94.94,0,0,1-.24.18.73.73,0,0,1-.23.09.31.31,0,0,1-.19,0,.88.88,0,0,1-.36,0L122,155a1.61,1.61,0,0,1-.33-.12,1.39,1.39,0,0,1-.28-.12,1.87,1.87,0,0,1-.28-.16,3.47,3.47,0,0,1-.84-.72,1.64,1.64,0,0,1-.21-.25,2,2,0,0,1-.25-.35,6.23,6.23,0,0,1-.41-.71,14.18,14.18,0,0,1-.57-1.32c-.1-.25-.19-.49-.28-.74l-.15-.4a1.31,1.31,0,0,1,.38-1.43,1.39,1.39,0,0,1,1.11-.43h.1a3.15,3.15,0,0,1,1.47.78,4,4,0,0,1,.5.59c.09.13.18.27.26.41s.16.28.23.43.15.29.22.44l.39.77c.09.16.18.32.28.47a2,2,0,0,0,.24.33,2.66,2.66,0,0,0,.32.35Zm9.16,1.32a1.43,1.43,0,0,1-1.73.09l-.07,0a1.88,1.88,0,0,1-.34-.3,2.55,2.55,0,0,1-.32-.4c-1.59-2.43-3.12-4.9-4.71-7.32a2.54,2.54,0,0,1-.27-.51.58.58,0,0,1-.06-.17,1.46,1.46,0,0,1,0-.2,1.22,1.22,0,0,1,0-.26.61.61,0,0,1,0-.14.13.13,0,0,1,0-.06.31.31,0,0,1,0-.11,2.09,2.09,0,0,1,.08-.23,1.4,1.4,0,0,1,.1-.16.56.56,0,0,1,.12-.16,2.08,2.08,0,0,1,.21-.21,3,3,0,0,1,.32-.24c.52-.33,1.25-.8,1.71-.14,2,2.89,4,5.84,6.05,8.93C133.71,153.33,133.52,154,133.07,154.3Zm2.46-8.27a8.3,8.3,0,0,1-3.35-5.11,1.15,1.15,0,0,1,0-.31,1.11,1.11,0,0,1,0-.19.81.81,0,0,1,.07-.22.09.09,0,0,1,0-.06.65.65,0,0,1,.1-.15l.06-.07a2.16,2.16,0,0,1,.85-.5l.17,0a2.85,2.85,0,0,1,.39-.11l.39-.09c.21.18.41.37.61.56a11.46,11.46,0,0,1,1.12,1.2,8.63,8.63,0,0,1,.9,1.33,2.2,2.2,0,0,1,.15.31c.05.1.09.19.13.29s.07.18.11.28a1.83,1.83,0,0,1,.08.25,3.16,3.16,0,0,1,.13.53,1.4,1.4,0,0,1,.06.28,3,3,0,0,1,.06.43A1.49,1.49,0,0,1,135.53,146ZM144,141.1a1.36,1.36,0,0,1-.35.44,1.48,1.48,0,0,1-1.1.4,2.94,2.94,0,0,1-.75-.18,1.22,1.22,0,0,1-.33-.14,1.11,1.11,0,0,1-.3-.17,2,2,0,0,1-.33-.24.49.49,0,0,1-.13-.12.08.08,0,0,1,0,0,3.68,3.68,0,0,1-.51-.6c-.06-.08-.11-.17-.16-.25a1.62,1.62,0,0,1-.1-.18,3.88,3.88,0,0,1-.24-.45c-.08-.15-.15-.31-.22-.47-.19-.41-.36-.82-.55-1.22-.12-.25-.24-.48-.37-.71a1.17,1.17,0,0,1-.18-.6.64.64,0,0,1,0-.2.44.44,0,0,1,.06-.16h0a.86.86,0,0,1,.1-.16,1,1,0,0,1,.14-.15,1.2,1.2,0,0,1,.21-.17,1.43,1.43,0,0,1,.24-.16,1.71,1.71,0,0,1,.23-.13,8.22,8.22,0,0,1,.89-.37,3,3,0,0,1,.5.26.1.1,0,0,1,.07,0,2.85,2.85,0,0,1,.46.31,4.89,4.89,0,0,1,.82.82,10,10,0,0,1,.86,1.32c.26.47.49,1,.72,1.45.11.25.23.49.34.73A1.2,1.2,0,0,1,144,141.1Zm8.09.07a1.74,1.74,0,0,1-.28.34,2,2,0,0,1-.41.33,2.79,2.79,0,0,1-.33.19,2,2,0,0,1-.59.21,1.5,1.5,0,0,1-.67,0,1,1,0,0,1-.36-.16,2.53,2.53,0,0,1-.79-.75,8.05,8.05,0,0,1-.56-.89l-.27-.5c-.39-.77-.77-1.64-1.19-2.42-.09-.17-.19-.34-.29-.51a5.8,5.8,0,0,0-.63-.88,4,4,0,0,0-.35-.36,3.51,3.51,0,0,1-.68-.88,2.21,2.21,0,0,1-.18-.34c-.14-.28-.26-.56-.37-.84a2,2,0,0,1-.1-.29c0-.1,0-.19,0-.27a1.28,1.28,0,0,1,0-.44,1,1,0,0,1,.18-.4,1.07,1.07,0,0,1,.14-.16l.24-.18.28-.15a2.08,2.08,0,0,1,.3-.13l.63-.24a2.25,2.25,0,0,1,.64.18l.14.07a.24.24,0,0,1,.11.06l.16.1a2.34,2.34,0,0,1,.35.29l.12.13a1,1,0,0,1,.12.15,1.61,1.61,0,0,1,.21.3,4.15,4.15,0,0,1,.32.63c.05.13.09.25.13.37a2,2,0,0,0,.09.22,2.92,2.92,0,0,0,.17.36c0,.1.1.2.16.3.17.29.37.58.58.88h0c.16.22.33.43.5.65.6.74,1.25,1.48,1.77,2.18a4.44,4.44,0,0,1,.27.38,3.73,3.73,0,0,1,.66,1.5,1.79,1.79,0,0,1,0,.23A1.48,1.48,0,0,1,152.09,141.17Zm3.88-8-.11.16-.09.11-.05.05a1.32,1.32,0,0,1-.87.43h-.18l-.29-.06a2.22,2.22,0,0,1-.39-.12,2,2,0,0,1-.49-.22,2.52,2.52,0,0,1-.44-.28,1.93,1.93,0,0,1-.3-.27,3.7,3.7,0,0,1-.49-.57,1.43,1.43,0,0,1-.14-.2,1.28,1.28,0,0,1-.15-.25,5.71,5.71,0,0,1-.35-.64c-.24-.5-.44-1-.65-1.53l-.33-.74a1.72,1.72,0,0,1-.07-.21,1.49,1.49,0,0,1,0-.21.88.88,0,0,1,0-.16.19.19,0,0,1,0-.08.13.13,0,0,1,0-.08.87.87,0,0,1,.1-.19l0,0a.21.21,0,0,1,.06-.08.57.57,0,0,1,.11-.11.19.19,0,0,1,.07-.06,4.2,4.2,0,0,1,1.73-.75,9.91,9.91,0,0,1,3.35,5.26A1.15,1.15,0,0,1,156,133.14Zm6.67-5.16a1.87,1.87,0,0,1,0,.42,1.67,1.67,0,0,1-.08.3.44.44,0,0,1-.06.16.9.9,0,0,1-.12.24.59.59,0,0,1-.13.18.34.34,0,0,1-.08.09,1.71,1.71,0,0,1-.49.37,1.26,1.26,0,0,1-.73.11h-.09a.58.58,0,0,1-.17-.06l-.13-.05a1.17,1.17,0,0,1-.24-.09,2.73,2.73,0,0,1-.56-.3,3.94,3.94,0,0,1-.59-.49,4.41,4.41,0,0,1-.47-.58,2.63,2.63,0,0,1-.2-.33,5.44,5.44,0,0,1-.37-.67c-.22-.46-.42-1-.62-1.44-.11-.23-.21-.46-.31-.69a1.71,1.71,0,0,1-.09-.3,1.56,1.56,0,0,1,.39-1.33.46.46,0,0,1,.07-.07.53.53,0,0,1,.14-.12,1.45,1.45,0,0,1,.46-.24,1,1,0,0,1,.41,0c2.52.55,2.82,3.22,4.1,4.86Zm7.47,1.86a3.25,3.25,0,0,1-.62.31,1.7,1.7,0,0,1-.56.1l-.25,0a1.19,1.19,0,0,1-.32-.1.76.76,0,0,1-.18-.09,1.46,1.46,0,0,1-.33-.24.77.77,0,0,1-.16-.15l-.08-.08a2,2,0,0,1-.19-.22l-.18-.25a1.28,1.28,0,0,1-.14-.21,7.24,7.24,0,0,1-.48-.83c-.06-.1-.11-.21-.17-.32-.23-.46-.45-.94-.68-1.41l-.27-.54-.16-.29-.2-.34c-.08-.14-.17-.29-.26-.42l-.27-.39a.76.76,0,0,0-.11-.14c-.08-.09-.15-.18-.23-.26s-.11-.12-.17-.17h0a1.24,1.24,0,0,1-.19-.21l-.18-.23a5.93,5.93,0,0,1-.46-.78c-.07-.14-.13-.28-.19-.42s-.12-.28-.18-.41a2,2,0,0,1-.16-.56,1.5,1.5,0,0,1,0-.2.81.81,0,0,1,0-.16.77.77,0,0,1,.09-.28.35.35,0,0,1,.07-.12.35.35,0,0,1,.09-.11.93.93,0,0,1,.14-.14l.16-.11a1.06,1.06,0,0,1,.2-.12l.21-.11a4.75,4.75,0,0,0,.6-.34,2.42,2.42,0,0,1,.56.12,2.47,2.47,0,0,1,1,.57l.06.06a2.57,2.57,0,0,1,.34.4.91.91,0,0,1,.11.16.51.51,0,0,1,.09.16c.06.11.11.22.16.33a1.47,1.47,0,0,1,.1.22c0,.08.07.17.1.26a3.15,3.15,0,0,0,.19.43,16.27,16.27,0,0,0,2,2.85q.27.31.51.63l.19.24c.09.13.19.25.27.37a6.76,6.76,0,0,1,.65,1,1.51,1.51,0,0,1,.13.3,1.72,1.72,0,0,1,.14.46,1.45,1.45,0,0,1,0,.35A1.62,1.62,0,0,1,170.11,129.84Zm4.43-8.69a.66.66,0,0,1-.09.19,2.34,2.34,0,0,1-.87.8c-.18.11-.38.21-.57.31a.33.33,0,0,1-.13,0,1.07,1.07,0,0,1-.27-.09,3.56,3.56,0,0,1-1.31-.86l-.22-.24a4.22,4.22,0,0,1-.57-.81,5,5,0,0,1-.29-.5c-.12-.23-.24-.46-.34-.69s-.23-.46-.34-.68-.23-.46-.35-.67a1.3,1.3,0,0,1,.24-1.63h0a1.25,1.25,0,0,1,.44-.29,1.21,1.21,0,0,1,.25-.08,1.24,1.24,0,0,1,.27,0h.1a3.05,3.05,0,0,1,.84.17l.27.11.1,0a2.14,2.14,0,0,1,.32.2.9.9,0,0,1,.19.16.43.43,0,0,1,.12.11s0,0,0,0a1.14,1.14,0,0,1,.19.19,3.79,3.79,0,0,1,.3.4,3.45,3.45,0,0,1,.2.32,13.89,13.89,0,0,1,.64,1.28,13.62,13.62,0,0,0,.68,1.38,1.18,1.18,0,0,1,.18.45.94.94,0,0,1,0,.41S174.54,121.14,174.54,121.15Zm4.86-2.89a3.11,3.11,0,0,1-.46-.1,2.77,2.77,0,0,1-.68-.28.52.52,0,0,1-.19-.11.25.25,0,0,1-.12-.08l-.22-.16a2.73,2.73,0,0,1-.35-.33,2.2,2.2,0,0,1-.2-.23,4.59,4.59,0,0,1-.35-.51,1.35,1.35,0,0,1-.15-.26,3.75,3.75,0,0,1-.24-.44,2.39,2.39,0,0,1-.13-.28c-.21-.44-.4-.89-.6-1.32-.11-.25-.23-.49-.35-.72l0-.06a.66.66,0,0,1-.1-.31.57.57,0,0,1,0-.26.27.27,0,0,1,0-.12,1.19,1.19,0,0,1,.26-.4l.16-.16a2.83,2.83,0,0,1,.28-.2,4.34,4.34,0,0,1,.56-.33l.08,0,.54-.26c2,1,2.81,3.14,3.72,5.06A1.4,1.4,0,0,1,179.4,118.26Z" fill="#fff"/><path d="M164.1,123.78c2.23,2,2.88,8.09,6,6.06,2.89-1.89-2.22-5.18-3.28-8.08a3,3,0,0,0-2.55-2.28c-.66.49-2.06.63-1.39,2.25A5.92,5.92,0,0,0,164.1,123.78Z" fill="#889cb7"/><path d="M151.4,141.84c3-2-2.32-5.19-3.32-8.14a3,3,0,0,0-2.31-2.28c-1,.39-2.25.69-1.63,2.26a5.42,5.42,0,0,0,1.23,2.06C147.64,137.76,148.23,143.92,151.4,141.84Z" fill="#879cb7"/><path d="M94.91,177.22c-1.38-2.17-2.7-4.37-4.11-6.51A22.78,22.78,0,0,0,89,168.53c-1.16.6-2.65,1-1.91,2.41,1.59,3,3.47,5.76,5.33,8.56a1.48,1.48,0,0,0,2.16.2A1.61,1.61,0,0,0,94.91,177.22Z" fill="#889cb7"/><path d="M126.36,143.88a1.54,1.54,0,0,0-.46,2.45c1.59,2.42,3.12,4.89,4.71,7.32a1.63,1.63,0,0,0,2.46.65c.45-.31.64-1,1.05-1.63-2.08-3.09-4-6-6.05-8.93C127.61,143.08,126.88,143.55,126.36,143.88Z" fill="#879cb7"/><path d="M107.58,162.34c1.8,1.71,2.22,6.76,5,5,3.32-2.1-1.36-4.49-2.21-6.85-.52-1.47-1.27-3.32-3.21-3.83-1.16.47-2.27.94-1.55,2.42A11,11,0,0,0,107.58,162.34Z" fill="#879bb7"/><path d="M99,169.44c-.93-1.91-1.42-4.42-4-4.85-.82-.14-2.06.75-1.53,1.85.92,1.92,1.7,4.08,3.69,5.08C98.48,171.11,99.49,170.41,99,169.44Z" fill="#8a9eb9"/><path d="M117.54,157.61c-.64-2.09-1.54-4.28-3.7-5.22-.71-.31-2.14.66-1.86,1.67a9.17,9.17,0,0,0,3.8,5.44C116.51,158.93,117.9,158.76,117.54,157.61Z" fill="#8a9eb9"/><path d="M123.91,152.87c-1.37-1.23-1.42-4-3.91-4.57a1.46,1.46,0,0,0-1.59,1.85c.77,2,1.4,4.34,3.81,5C123.06,155.32,124,154.45,123.91,152.87Z" fill="#899db8"/><path d="M144,140c-.92-1.92-1.71-4.07-3.77-4.93-1.27.46-2.35,1-1.72,2.11,1.06,1.8,1.39,4.44,4,4.77C143.34,142,144.54,141.1,144,140Z" fill="#8a9eb9"/><path d="M101.46,160.51c-.79-.18-1.76.71-1.55,1.44.62,2.12,1.41,4.36,3.64,5.27.84.34,1.72-.62,2-1.94C104.23,163.73,104,161.08,101.46,160.51Z" fill="#899db8"/><path d="M135.53,146a1.49,1.49,0,0,0,2-1.4c-.22-2.32-1.69-4-3.35-5.45-1.16.21-2.3.62-2,1.74A8.3,8.3,0,0,0,135.53,146Z" fill="#899db8"/><path d="M152.73,127c-1.41.32-2.52,1-2.07,2,.9,1.92,1.39,4.43,4,4.89a1.37,1.37,0,0,0,1.41-1.59A9.91,9.91,0,0,0,152.73,127Z" fill="#899db8"/><path d="M177.14,111.29c-1.17.55-2.33,1.18-1.79,2.15,1,1.84,1.44,4.43,4.05,4.82a1.4,1.4,0,0,0,1.46-1.91C180,114.43,179.14,112.32,177.14,111.29Z" fill="#899db8"/><path d="M158.54,123.07a1.48,1.48,0,0,0-1.37,2.06c.83,1.83,1.38,4.11,3.65,4.7.77.21,1.84-.51,1.82-1.9C161.36,126.29,161.06,123.62,158.54,123.07Z" fill="#889cb7"/><path d="M170.49,115.83a1.38,1.38,0,0,0-1.3,2c1,1.72,1.5,4,3.83,4.59,1-.51,2-1.18,1.37-2.21C173.37,118.56,173,116,170.49,115.83Z" fill="#869ab6"/><path d="M255.21,123.12,227.74,40.77a15.42,15.42,0,0,0-14.63-10.54H15.43A15.46,15.46,0,0,0,1.35,39.35,15.29,15.29,0,0,0,0,45.66V210.35a15.29,15.29,0,0,0,1.35,6.31,15.47,15.47,0,0,0,14.08,9.11H213.11a15.42,15.42,0,0,0,14.63-10.54l27.47-82.35A15.51,15.51,0,0,0,255.21,123.12Zm-5.94,7.78L221.8,213.25a9.17,9.17,0,0,1-8.69,6.25H15.43a9.17,9.17,0,0,1-9.16-9.15V45.66a9.17,9.17,0,0,1,9.16-9.16H213.11a9.17,9.17,0,0,1,8.69,6.25l27.47,82.35A9.14,9.14,0,0,1,249.27,130.9Z" fill="#8398b4"/></g></svg>